<svg class="fill-current" width="24" height="24" xmlns="http://www.w3.org/2000/svg">
  <path d="M24 18.955c0 .306-.057.707-.17 1.201-.114.495-.233.884-.358 1.168-.239.568-.932 1.17-2.08 1.807-1.068.58-2.125.869-3.17.869a6.74 6.74 0 0 1-.904-.06 7.003 7.003 0 0 1-.98-.213 14.614 14.614 0 0 1-.801-.247 67.124 67.124 0 0 1-.946-.35 38 38 0 0 0-.835-.306 15.438 15.438 0 0 1-2.983-1.415c-1.443-.898-2.943-2.125-4.5-3.682s-2.784-3.057-3.682-4.5a15.438 15.438 0 0 1-1.415-2.983c-.034-.102-.136-.38-.307-.835-.17-.454-.287-.77-.35-.946a14.614 14.614 0 0 1-.246-.801 7.003 7.003 0 0 1-.213-.98A6.765 6.765 0 0 1 0 5.778c0-1.045.29-2.102.87-3.17C1.505 1.46 2.107.767 2.675.528 2.96.403 3.35.284 3.844.17 4.338.057 4.739 0 5.045 0c.16 0 .279.017.358.051.205.068.506.5.904 1.296.125.216.295.522.511.92.216.398.415.759.597 1.082.182.324.358.628.528.912.034.046.134.188.298.426.165.24.287.44.367.606.08.164.12.326.12.485 0 .228-.163.512-.487.853-.323.34-.676.653-1.056.937-.381.284-.733.585-1.057.904-.324.318-.486.58-.486.784 0 .102.028.23.085.383.057.154.105.27.145.35.04.08.12.216.239.409.12.193.184.3.196.324.863 1.556 1.852 2.892 2.966 4.005 1.113 1.114 2.449 2.103 4.005 2.966.023.012.131.077.324.196.193.12.33.2.41.239.079.04.195.088.349.145.153.057.281.085.383.085.205 0 .466-.162.784-.486.319-.324.62-.676.904-1.057.284-.38.596-.733.937-1.056.341-.324.625-.486.853-.486.159 0 .32.04.485.119.165.08.367.202.605.367.24.164.381.264.427.298.284.17.588.346.912.528.323.182.684.38 1.082.597.398.216.704.386.92.511.796.398 1.228.699 1.296.904.034.08.051.198.051.358z" fill="#FFF" fill-rule="evenodd"/>
</svg>
