<svg xmlns="http://www.w3.org/2000/svg" width="89" height="13" viewBox="0 0 89 13">
  <g fill="none" fill-rule="evenodd">
    <rect width="90" height="15"/>
    <path fill="#FFF" fill-rule="nonzero" d="M16.797638,2.89031982 L17.7795411,7.14019776 L17.9910278,8.32351685 L18.20755,7.16537476 L19.0434265,2.89031982 L20.6799317,2.89031982 L21.5611267,7.14019776 L21.7877198,8.32351685 L22.0143128,7.18551636 L23.0062867,2.89031982 L24.5823669,2.89031982 L22.4926758,10.3125 L21.012268,10.3125 L20.1159668,5.97198487 L19.854126,4.53689575 L19.5922852,5.97198487 L18.6959839,10.3125 L17.2558594,10.3125 L15.151062,2.89031982 L16.797638,2.89031982 Z M29.3534088,4.85916138 C29.6303573,4.97665464 29.8577872,5.15624879 30.0357055,5.39794922 C30.1867684,5.60272319 30.2790831,5.81336867 30.3126526,6.02989197 C30.3462221,6.24641527 30.3630066,6.599729 30.3630066,7.08984375 L30.3630066,10.3125 L28.8977051,10.3125 L28.8977051,6.97402954 C28.8977051,6.67861791 28.8473515,6.440278 28.746643,6.25900268 C28.615722,6.00387445 28.3673114,5.87631226 28.0014038,5.87631226 C27.6220684,5.87631226 27.3342143,6.00303523 27.1378327,6.25648498 C26.9414511,6.50993474 26.8432617,6.87164072 26.8432617,7.34161377 L26.8432617,10.3125 L25.413208,10.3125 L25.413208,2.91549682 L26.8432617,2.91549682 L26.8432617,5.53894042 C27.0513926,5.22003014 27.2922503,4.99763552 27.5658417,4.87174987 C27.8394331,4.74586424 28.1272873,4.68292237 28.4294128,4.68292237 C28.7684648,4.68292237 29.0764604,4.74166811 29.3534088,4.85916138 Z M35.1315308,8.85223387 C35.3564465,8.55346528 35.4689026,8.12881745 35.4689026,7.57827758 C35.4689026,7.02773772 35.3564465,6.6039291 35.1315308,6.30683899 C34.9066151,6.00974888 34.5843527,5.86120605 34.1647339,5.86120605 C33.7451151,5.86120605 33.4220135,6.00974888 33.1954193,6.30683899 C32.9688251,6.6039291 32.8555298,7.02773772 32.8555298,7.57827758 C32.8555298,8.12881745 32.9688251,8.55346528 33.1954193,8.85223387 C33.4220135,9.15100247 33.7451151,9.30038456 34.1647339,9.30038456 C34.5843527,9.30038456 34.9066151,9.15100247 35.1315308,8.85223387 Z M36.2796021,9.64530947 C35.8163429,10.2176695 35.1130723,10.5038452 34.1697693,10.5038452 C33.2264662,10.5038452 32.5231957,10.2176695 32.0599365,9.64530947 C31.5966773,9.07294941 31.3650513,8.38394568 31.3650513,7.57827758 C31.3650513,6.7860373 31.5966773,6.09955124 32.0599365,5.51879883 C32.5231957,4.93804642 33.2264662,4.64767456 34.1697693,4.64767456 C35.1130723,4.64767456 35.8163429,4.93804642 36.2796021,5.51879883 C36.7428612,6.09955124 36.9744873,6.7860373 36.9744873,7.57827758 C36.9744873,8.38394568 36.7428612,9.07294941 36.2796021,9.64530947 Z M42.6342773,7.50778198 L44.5175171,7.50778198 L43.5910034,4.58724976 L42.6342773,7.50778198 Z M42.72995,2.89031982 L44.4822693,2.89031982 L47.1107483,10.3125 L45.4289245,10.3125 L44.9505615,8.78677369 L42.2163391,8.78677369 L41.7027283,10.3125 L40.0813294,10.3125 L42.72995,2.89031982 Z M52.370224,5.1386261 C52.7310962,5.43571621 52.9115295,5.92834129 52.9115295,6.61651612 L52.9115295,10.3125 L51.4411927,10.3125 L51.4411927,6.97402954 C51.4411927,6.68533181 51.4025883,6.4637764 51.3253784,6.30935669 C51.1843865,6.02737285 50.9158345,5.88638305 50.5197143,5.88638305 C50.0329566,5.88638305 49.698945,6.09283241 49.5176697,6.5057373 C49.423675,6.72393907 49.3766784,7.00256178 49.3766784,7.34161377 L49.3766784,10.3125 L47.9466247,10.3125 L47.9466247,4.83398437 L49.3313599,4.83398437 L49.3313599,5.63461304 C49.5159922,5.3526292 49.6905509,5.14953675 49.8550415,5.02532959 C50.1504532,4.80377087 50.5247475,4.69299317 50.9779357,4.69299317 C51.5452604,4.69299317 52.0093519,4.84153599 52.370224,5.1386261 Z M55.3536987,8.56018069 C55.3839113,8.81530894 55.4493709,8.9965815 55.5500794,9.10400391 C55.7279978,9.29535009 56.0569739,9.39102169 56.5370178,9.39102169 C56.8190017,9.39102169 57.0430748,9.3490605 57.2092438,9.26513672 C57.3754128,9.18121294 57.4584961,9.05532919 57.4584961,8.88748172 C57.4584961,8.72634806 57.3913581,8.60382122 57.2570801,8.51989744 C57.1228021,8.4359737 56.6243024,8.291627 55.7615662,8.08685302 C55.1405303,7.93243331 54.7024549,7.73941156 54.4473266,7.50778198 C54.1921985,7.27950936 54.0646362,6.95053315 54.0646362,6.52084351 C54.0646362,6.013944 54.2635326,5.57838622 54.6613312,5.21415711 C55.0591298,4.84992799 55.6188929,4.66781617 56.3406372,4.66781617 C57.0254551,4.66781617 57.5835398,4.80460984 58.0149079,5.0782013 C58.446276,5.35179275 58.6938473,5.82427642 58.7576294,6.49566651 L57.3225403,6.49566651 C57.3023986,6.31103423 57.2503666,6.16500908 57.1664429,6.05758667 C57.0086663,5.86288355 56.7401142,5.76553344 56.3607788,5.76553344 C56.0485824,5.76553344 55.8261878,5.8142085 55.6935882,5.91156006 C55.5609887,6.00891162 55.4946899,6.12304622 55.4946899,6.25396729 C55.4946899,6.41845785 55.5651848,6.53762781 55.7061768,6.61148071 C55.8471687,6.68869057 56.3456683,6.82128812 57.2016907,7.00927734 C57.7723722,7.14355536 58.200377,7.34664781 58.4857178,7.61856079 C58.7677016,7.89383072 58.9086914,8.23791297 58.9086914,8.65081791 C58.9086914,9.19464384 58.7064382,9.63859387 58.3019257,9.98268131 C57.8974132,10.3267687 57.2721905,10.4988098 56.426239,10.4988098 C55.5635028,10.4988098 54.926531,10.316698 54.5153046,9.95246887 C54.1040782,9.58823972 53.898468,9.12414834 53.898468,8.56018069 L55.3536987,8.56018069 Z M62.5593567,4.82391357 L64.0145874,4.82391357 L64.8504638,8.77670287 L65.706482,4.82391357 L67.2019958,4.82391357 L65.6108093,10.3125 L64.135437,10.3125 L63.2743836,6.31439209 L62.4032593,10.3125 L60.9127807,10.3125 L59.3719482,4.82391357 L60.9127807,4.82391357 L61.7687989,8.76159666 L62.5593567,4.82391357 Z M69.3848419,6.17340088 C69.2018881,6.38153181 69.0869143,6.66351141 69.039917,7.01934815 L71.2705994,7.01934815 C71.2471007,6.64001275 71.1321269,6.35215857 70.9256744,6.15577698 C70.719222,5.95939538 70.4632583,5.86120605 70.1577758,5.86120605 C69.8254378,5.86120605 69.5677958,5.96526996 69.3848419,6.17340088 Z M71.391449,4.93469239 C71.7573565,5.10589686 72.0594775,5.3761273 72.2978211,5.74539185 C72.5126659,6.07101603 72.6519772,6.44866729 72.7157593,6.87835693 C72.7526857,7.13012821 72.7677918,7.49267342 72.7610779,7.96600342 L69.0046692,7.96600342 C69.0248109,8.51654325 69.1976913,8.90258681 69.5233154,9.12414553 C69.7213755,9.26178047 69.9597154,9.33059691 70.2383422,9.33059691 C70.5337539,9.33059691 70.7737723,9.24667444 70.9584045,9.07882687 C71.0591131,8.98818928 71.1480709,8.86230553 71.2252807,8.70117187 L72.6905823,8.70117187 C72.6536558,9.02679609 72.4841324,9.35745075 72.1820068,9.69314578 C71.7120337,10.2269009 71.0540813,10.4937744 70.2081299,10.4937744 C69.5098842,10.4937744 68.8938931,10.2688621 68.360138,9.81903075 C67.8263828,9.36919941 67.5595093,8.63739525 67.5595093,7.62359619 C67.5595093,6.67357924 67.8003668,5.94513193 68.2820892,5.43823242 C68.7638116,4.93133291 69.3890343,4.67788696 70.1577758,4.67788696 C70.6143211,4.67788696 71.0255414,4.76348791 71.391449,4.93469239 Z M76.7768097,4.69551086 C76.7952729,4.69718934 76.836395,4.69970702 76.900177,4.70306396 L76.900177,6.17340088 C76.8095393,6.16333003 76.7289738,6.15661623 76.6584778,6.15325927 C76.5879818,6.14990233 76.5309145,6.14822388 76.4872742,6.14822388 C75.9098787,6.14822388 75.5221567,6.33621028 75.3240967,6.71218872 C75.2133173,6.92367659 75.1579284,7.2492959 75.1579284,7.6890564 L75.1579284,10.3125 L73.7127685,10.3125 L73.7127685,4.82391357 L75.0823974,4.82391357 L75.0823974,5.78063964 C75.3039562,5.41473205 75.4969779,5.16464301 75.6614685,5.03036499 C75.9300246,4.80544931 76.2791422,4.69299317 76.7088318,4.69299317 C76.7356874,4.69299317 76.7583465,4.69383239 76.7768097,4.69551086 Z M78.8589477,8.56018069 C78.8891603,8.81530894 78.9546199,8.9965815 79.0553284,9.10400391 C79.2332467,9.29535009 79.5622229,9.39102169 80.0422669,9.39102169 C80.3242507,9.39102169 80.5483237,9.3490605 80.7144928,9.26513672 C80.8806619,9.18121294 80.9637451,9.05532919 80.9637451,8.88748172 C80.9637451,8.72634806 80.8966072,8.60382122 80.7623291,8.51989744 C80.6280511,8.4359737 80.1295514,8.291627 79.2668152,8.08685302 C78.6457793,7.93243331 78.2077039,7.73941156 77.9525757,7.50778198 C77.6974475,7.27950936 77.5698852,6.95053315 77.5698852,6.52084351 C77.5698852,6.013944 77.7687816,5.57838622 78.1665802,5.21415711 C78.5643788,4.84992799 79.1241419,4.66781617 79.8458862,4.66781617 C80.5307041,4.66781617 81.0887887,4.80460984 81.5201569,5.0782013 C81.951525,5.35179275 82.1990963,5.82427642 82.2628784,6.49566651 L80.8277893,6.49566651 C80.8076476,6.31103423 80.7556157,6.16500908 80.6716919,6.05758667 C80.5139152,5.86288355 80.2453632,5.76553344 79.8660278,5.76553344 C79.5538314,5.76553344 79.3314368,5.8142085 79.1988373,5.91156006 C79.0662378,6.00891162 78.999939,6.12304622 78.999939,6.25396729 C78.999939,6.41845785 79.0704338,6.53762781 79.2114258,6.61148071 C79.3524177,6.68869057 79.8509173,6.82128812 80.7069397,7.00927734 C81.2776212,7.14355536 81.705626,7.34664781 81.9909667,7.61856079 C82.2729506,7.89383072 82.4139404,8.23791297 82.4139404,8.65081791 C82.4139404,9.19464384 82.2116872,9.63859387 81.8071747,9.98268131 C81.4026622,10.3267687 80.7774396,10.4988098 79.931488,10.4988098 C79.0687518,10.4988098 78.43178,10.316698 78.0205536,9.95246887 C77.6093272,9.58823972 77.403717,9.12414834 77.403717,8.56018069 L78.8589477,8.56018069 Z M85.2639771,8.85726928 L86.7645263,8.85726928 L86.7645263,10.3125 L85.2639771,10.3125 L85.2639771,8.85726928 Z M84.4281006,3.19747925 C84.8242207,2.94235102 85.3109712,2.81478882 85.8883667,2.81478882 C86.6470375,2.81478882 87.2772954,2.99606142 87.7791595,3.35861206 C88.2810236,3.7211627 88.5319519,4.2582667 88.5319519,4.96994018 C88.5319519,5.40634373 88.4228527,5.77392428 88.2046508,6.07269287 C88.0770867,6.25396819 87.832033,6.4855943 87.4694824,6.76757812 L87.111969,7.04452515 C86.9172659,7.19558791 86.7880253,7.37182517 86.7242432,7.57324219 C86.6839597,7.7008063 86.6621399,7.89886341 86.658783,8.16741943 L85.2992248,8.16741943 C85.3193665,7.60009482 85.3730769,7.20817674 85.4603576,6.99165344 C85.5476384,6.77513015 85.7725507,6.52588031 86.1351013,6.24389648 L86.5026855,5.95687867 C86.6235357,5.86624101 86.7208859,5.76721245 86.7947388,5.65979004 C86.9290168,5.47515777 86.9961548,5.27206532 86.9961548,5.05050659 C86.9961548,4.79537836 86.9214638,4.56291304 86.7720795,4.35310364 C86.6226952,4.14329423 86.3499471,4.03839112 85.9538269,4.03839112 C85.5644207,4.03839112 85.2883156,4.16763176 85.1255035,4.42611695 C84.9626915,4.68460212 84.8812867,4.95315412 84.8812867,5.23178101 L83.4260559,5.23178101 C83.4663393,4.27505015 83.8003508,3.59695634 84.4281006,3.19747925 Z"/>
    <path fill="#FC6D10" fill-rule="nonzero" d="M7.5,10.078125 L7.5,8.90625 C7.5,8.83789031 7.47802756,8.78173847 7.43408203,8.73779297 C7.3901365,8.69384747 7.33398472,8.671875 7.265625,8.671875 L6.5625,8.671875 L6.5625,4.921875 C6.5625,4.85351528 6.54052756,4.7973635 6.49658203,4.75341797 C6.4526365,4.70947244 6.39648472,4.6875 6.328125,4.6875 L3.984375,4.6875 C3.91601528,4.6875 3.8598635,4.70947244 3.81591797,4.75341797 C3.77197244,4.7973635 3.75,4.85351528 3.75,4.921875 L3.75,6.09375 C3.75,6.16210972 3.77197244,6.2182615 3.81591797,6.26220703 C3.8598635,6.30615256 3.91601528,6.328125 3.984375,6.328125 L4.6875,6.328125 L4.6875,8.671875 L3.984375,8.671875 C3.91601528,8.671875 3.8598635,8.69384747 3.81591797,8.73779297 C3.77197244,8.78173847 3.75,8.83789031 3.75,8.90625 L3.75,10.078125 C3.75,10.1464847 3.77197244,10.2026365 3.81591797,10.246582 C3.8598635,10.2905275 3.91601528,10.3125 3.984375,10.3125 L7.265625,10.3125 C7.33398472,10.3125 7.3901365,10.2905275 7.43408203,10.246582 C7.47802756,10.2026365 7.5,10.1464847 7.5,10.078125 Z M6.5625,3.515625 L6.5625,2.34375 C6.5625,2.27539028 6.54052756,2.2192385 6.49658203,2.17529297 C6.4526365,2.13134744 6.39648472,2.109375 6.328125,2.109375 L4.921875,2.109375 C4.85351528,2.109375 4.7973635,2.13134744 4.75341797,2.17529297 C4.70947244,2.2192385 4.6875,2.27539028 4.6875,2.34375 L4.6875,3.515625 C4.6875,3.58398472 4.70947244,3.6401365 4.75341797,3.68408203 C4.7973635,3.72802756 4.85351528,3.75 4.921875,3.75 L6.328125,3.75 C6.39648472,3.75 6.4526365,3.72802756 6.49658203,3.68408203 C6.54052756,3.6401365 6.5625,3.58398472 6.5625,3.515625 Z M11.25,6.5625 C11.25,7.58301292 10.9985377,8.52416559 10.4956055,9.38598628 C9.99267328,10.2478071 9.31030704,10.9301733 8.44848633,11.4331055 C7.58666561,11.9360377 6.64551292,12.1875 5.625,12.1875 C4.60448708,12.1875 3.66333439,11.9360377 2.80151367,11.4331055 C1.93969296,10.9301733 1.25732674,10.2478071 0.754394531,9.38598628 C0.251462329,8.52416559 0,7.58301292 0,6.5625 C0,5.54198708 0.251462329,4.60083439 0.754394531,3.73901367 C1.25732674,2.87719296 1.93969296,2.19482674 2.80151367,1.69189453 C3.66333439,1.18896233 4.60448708,0.9375 5.625,0.9375 C6.64551292,0.9375 7.58666561,1.18896233 8.44848633,1.69189453 C9.31030704,2.19482674 9.99267328,2.87719296 10.4956055,3.73901367 C10.9985377,4.60083439 11.25,5.54198708 11.25,6.5625 Z"/>
  </g>
</svg>
