<svg class="fill-current cursor-pointer <?= exists($data->modifier) ?>" width="12" height="12" xmlns="http://www.w3.org/2000/svg">
  <path d="M8 9.75V8.5a.243.243 0 0 0-.07-.18.243.243 0 0 0-.18-.07H7v-4a.243.243 0 0 0-.07-.18.243.243 0 0 0-.18-.07h-2.5a.243.243 0 0 0-.18.07.243.243 0 0 0-.07.18V5.5c0 .073.023.133.07.18.047.047.107.07.18.07H5v2.5h-.75a.243.243 0 0 0-.18.07.243.243 0 0 0-.07.18v1.25c0 .073.023.133.07.18.047.047.107.07.18.07h3.5a.243.243 0 0 0 .18-.07.243.243 0 0 0 .07-.18zM7 2.714V1.286a.3.3 0 0 0-.07-.206.228.228 0 0 0-.18-.08h-1.5a.228.228 0 0 0-.18.08.3.3 0 0 0-.07.206v1.428a.3.3 0 0 0 .07.206.23.23 0 0 0 .18.08h1.5a.228.228 0 0 0 .18-.08.3.3 0 0 0 .07-.206zM12 6a5.87 5.87 0 0 1-.805 3.012 5.973 5.973 0 0 1-2.183 2.183A5.87 5.87 0 0 1 6 12a5.87 5.87 0 0 1-3.012-.805A5.973 5.973 0 0 1 .805 9.012 5.87 5.87 0 0 1 0 6a5.87 5.87 0 0 1 .805-3.012A5.973 5.973 0 0 1 2.988.805 5.87 5.87 0 0 1 6 0a5.87 5.87 0 0 1 3.012.805 5.973 5.973 0 0 1 2.183 2.183A5.87 5.87 0 0 1 12 6z" />
</svg>
