<svg xmlns="http://www.w3.org/2000/svg" width="35" height="80" viewBox="0 0 35 80">
  <path fill="#FFF" fill-rule="evenodd" d="M1266.46441,42.784979 C1265.53361,41.9531846 1266.1012,39.6427928 1267.28883,40.2117401 C1267.34524,40.2390229 1267.40215,40.2663058 1267.45856,40.2929232 C1269.72792,39.6561015 1272.25955,40.2303723 1274.53584,40.4033855 C1277.35597,40.6169903 1280.17857,40.7959924 1282.99622,41.0608357 C1284.30855,41.1846067 1284.32141,43.9315242 1282.99622,43.8263854 C1280.02566,43.5914867 1277.05856,43.263427 1274.09048,42.9739626 C1273.64858,42.9307093 1273.19679,42.9007647 1272.74252,42.8708201 C1277.91564,45.4813234 1283.00512,48.4365222 1287.56513,52.6593755 C1296.87218,61.2780954 1303.82971,76.6509851 1299.86105,92.0378489 C1295.72513,108.074178 1283.71374,116.416742 1272.13732,119.993457 C1271.93394,120.056008 1271.85031,119.651424 1272.05122,119.572237 C1279.44224,116.65896 1286.84909,112.800766 1292.44579,105.41909 C1297.77973,98.3827759 1301.09569,88.346013 1299.5968,78.2287325 C1296.79994,59.3556524 1282.73741,50.7149732 1270.37023,44.696775 C1270.92248,45.4992901 1271.43563,46.3237647 1271.91217,47.0371114 C1273.5318,49.4626236 1275.02673,52.0631454 1276.35836,54.7867726 C1277.08974,56.2820061 1275.33749,57.6068881 1274.59225,56.174871 C1273.16165,53.4286189 1271.66772,50.7688734 1270.01147,48.2595164 C1268.85848,46.5127483 1267.27151,44.8870895 1266.46441,42.784979 Z" transform="translate(-1266 -40)"/>
</svg>
