<svg xmlns="http://www.w3.org/2000/svg" width="50" height="50" viewBox="0 0 50 50">
  <g fill="#B6500F" fill-rule="evenodd">
    <path fill-rule="nonzero" d="M50,9.23127208 L50,0 L40.7687279,0 L25,17.6234092 L9.23127208,0 L2.84217094e-14,0 L2.84217094e-14,9.23127208 L18.0549868,25.3855059 L13.6773879,30.2781628 L11.2903226,27.8918851 L7.73059476,31.4516129 L9.34349798,33.0645161 L6.92414315,35.483871 L8.94027218,37.5 L4.43548387,42.0047883 L3.55972782,41.1290323 L1.27898185,41.1290323 L2.84217094e-14,42.4080141 L2.84217094e-14,44.6887601 L5.31123992,50 L7.59198589,50 L8.87096774,48.7210181 L8.87096774,46.4402722 L7.99521169,45.5645161 L12.5,41.0597278 L14.516129,43.0758569 L16.9354839,40.656502 L18.5483871,42.2694052 L22.1081149,38.7096774 L19.7210496,36.3226121 L25,31.6000661 L30.2789504,36.3226121 L27.8918851,38.7096774 L31.4516129,42.2694052 L33.0645161,40.656502 L35.483871,43.0758569 L37.5,41.0597278 L42.0047883,45.5645161 L41.1290323,46.4402722 L41.1290323,48.7210181 L42.4080141,50 L44.6887601,50 L50,44.6887601 L50,42.4080141 L48.7210181,41.1290323 L46.4402722,41.1290323 L45.5645161,42.0047883 L41.0597278,37.5 L43.0758569,35.483871 L40.656502,33.0645161 L42.2694052,31.4516129 L38.7096774,27.8918851 L36.3226121,30.2789504 L31.9450132,25.3862934 L50,9.23127208 Z M1.61290323,8.51066341 L1.61290323,2.75327621 L19.187878,20.328251 L20.328251,19.187878 L2.75327621,1.61290323 L8.51066341,1.61290323 L23.9179057,18.8330866 L19.129993,24.183704 L1.61290323,8.51066341 Z M7.25806452,48.0531754 L6.92414315,48.3870968 L5.97908266,48.3870968 L1.61290323,44.0209173 L1.61290323,43.0758569 L1.9468246,42.7419355 L2.89188508,42.7419355 L7.25806452,47.1081149 L7.25806452,48.0531754 Z M6.85483871,44.4241431 L5.57585685,43.1451613 L10.0806452,38.640373 L11.359627,39.9193548 L6.85483871,44.4241431 Z M14.516129,40.7951109 L9.20488911,35.483871 L10.483871,34.2048891 L15.7951109,39.516129 L14.516129,40.7951109 Z M18.5483871,39.9886593 L10.0113407,31.4516129 L11.2903226,30.172631 L19.827369,38.7096774 L18.5483871,39.9886593 Z M17.2694052,33.8709677 L29.6024446,21.5379284 L28.4620716,20.3975554 L16.1290323,32.7305948 L14.8193359,31.4208984 L41.4893366,1.61290323 L47.2467238,1.61290323 L29.671749,19.187878 L30.812122,20.328251 L48.3870968,2.75327621 L48.3870968,8.51066341 L18.5791016,35.1806641 L17.2694052,33.8709677 Z M26.2096774,30.5175781 L27.881647,29.0216261 L32.7305948,33.8709677 L31.4208984,35.1806641 L26.2096774,30.5175781 Z M47.1081149,42.7419355 L48.0531754,42.7419355 L48.3870968,43.0758569 L48.3870968,44.0209173 L44.0209173,48.3870968 L43.0758569,48.3870968 L42.7419355,48.0531754 L42.7419355,47.1081149 L47.1081149,42.7419355 Z M44.4241431,43.1451613 L43.1451613,44.4241431 L38.640373,39.9193548 L39.9193548,38.640373 L44.4241431,43.1451613 Z M40.7951109,35.483871 L35.483871,40.7951109 L34.2048891,39.516129 L39.516129,34.2048891 L40.7951109,35.483871 Z M39.9886593,31.4516129 L31.4516129,39.9886593 L30.172631,38.7096774 L38.7096774,30.172631 L39.9886593,31.4516129 Z M35.1806641,31.4208984 L33.8709677,32.7305948 L29.0854177,27.9450448 L30.743605,26.4612998 L35.1806641,31.4208984 Z"/>
    <path fill-rule="nonzero" d="M29.195281,8.87096774 L25,2.57804627 L20.804719,8.87096774 L25,15.1638892 L29.195281,8.87096774 Z M25,5.48646986 L27.2563319,8.87096774 L25,12.2554656 L22.7436681,8.87096774 L25,5.48646986 Z"/>
    <polygon points="20.861 .984 22.351 .367 23.586 3.347 22.096 3.965"/>
    <polygon points="16.496 6.221 17.113 4.73 20.093 5.965 19.476 7.455"/>
    <polygon points="29.906 5.966 32.886 4.731 33.504 6.221 30.523 7.456"/>
    <polygon points="26.414 3.347 27.649 .367 29.139 .985 27.904 3.965"/>
    <polygon points="24.194 43.548 25.806 43.548 25.806 45.161 24.194 45.161"/>
    <polygon points="27.419 43.548 29.032 43.548 29.032 45.161 27.419 45.161"/>
    <polygon points="20.968 43.548 22.581 43.548 22.581 45.161 20.968 45.161"/>
  </g>
</svg>
