<svg xmlns="http://www.w3.org/2000/svg" width="50" height="50" viewBox="0 0 50 50">
  <g fill="#B6500F" fill-rule="evenodd">
    <path fill-rule="nonzero" d="M49.8776507,24.2882536 C49.4183992,14.3384615 40.9801455,6.64480249 31.0303534,7.104158 C21.7235967,7.53378378 14.2757796,14.9814969 13.8462578,24.2882536 L11.2924116,24.2882536 L8.88076923,20.3988565 C8.72910603,20.154262 8.46174636,20.0055094 8.17390852,20.0055094 L0.836590437,20.0055094 C0.377338877,20.0054054 0.00498960499,20.3777547 0.00488565489,20.8370062 C0.00488565489,20.9918919 0.0481288981,21.143763 0.12972973,21.2753638 L2.53056133,25.1456341 L0.12972973,29.016736 C-0.112266112,29.4070686 0.0079002079,29.9196466 0.398232848,30.1617464 C0.52983368,30.2433472 0.681704782,30.2865904 0.836590437,30.2865904 L8.17380457,30.2865904 C8.46164241,30.2865904 8.72900208,30.1378378 8.88066528,29.8932432 L11.3247401,25.9514553 L13.8461538,25.9514553 C14.3054054,35.9012474 22.743659,43.5949064 32.6934511,43.1355509 C42.6432432,42.6761954 50.3369023,34.2381497 49.8776507,24.2882536 Z M7.71060291,28.6233888 L2.32848233,28.6233888 L3.95343035,26.0038462 L9.33305613,26.0038462 L7.71060291,28.6233888 Z M3.95592516,24.2882536 L2.32848233,21.668711 L7.71060291,21.668711 L9.33555094,24.2882536 L3.95592516,24.2882536 Z M31.9037422,41.4932432 C23.1760915,41.5045738 15.9738046,34.6678794 15.5309771,25.9514553 L18.9280665,25.9514553 C19.3873181,33.1014553 25.5559252,38.5254678 32.7059252,38.0661123 C39.8559252,37.6067568 45.2799376,31.4382536 44.8205821,24.2882536 C44.3612266,17.1382536 38.1927235,11.7142412 31.0427235,12.1735967 C24.5330561,12.5917879 19.3461538,17.7785863 18.9280665,24.2882536 L15.5309771,24.2882536 C15.9762994,15.5901247 23.1515593,8.76195426 31.8611227,8.7481289 C40.9034304,8.73638254 48.2432432,16.0570686 48.2549896,25.0993763 C48.266736,34.141684 40.9460499,41.4814969 31.9037422,41.4932432 Z M31.8602911,24.2882536 L31.0087318,24.2882536 C31.4679834,23.8155925 32.2234927,23.8046778 32.6961538,24.2639293 C33.168815,24.7231809 33.1797297,25.4786902 32.7204782,25.9514553 C32.2612266,26.4242204 31.5057173,26.4350312 31.0329522,25.9756757 C31.0247401,25.9676715 31.016632,25.9595634 31.0087318,25.9514553 L31.8602911,25.9514553 C32.3195426,25.9514553 32.6918919,25.579106 32.6918919,25.1198545 C32.6918919,24.6606029 32.3195426,24.2882536 31.8602911,24.2882536 Z M32.7094595,27.8518711 C34.2182952,27.3926195 35.0691268,25.7970894 34.6097713,24.2883576 C34.1505198,22.7795218 32.5549896,21.9286902 31.0462578,22.3880457 C30.1356549,22.6651767 29.4230769,23.3778586 29.1459459,24.2883576 L25.6698545,24.2883576 C26.129106,20.8662162 29.2756757,18.4642412 32.697921,18.9234927 C36.1201663,19.3827443 38.5220374,22.5293139 38.0627859,25.9515593 C37.6035343,29.3738046 34.4569647,31.7756757 31.0347193,31.3164241 C28.2417879,30.94158 26.0446985,28.7445946 25.6698545,25.9515593 L29.1459459,25.9515593 C29.6051975,27.4602911 31.2007277,28.3111227 32.7094595,27.8518711 Z M32.6930353,32.9912682 C37.0402287,32.5320166 40.1920998,28.6355509 39.7328482,24.2882536 C39.2735967,19.9410603 35.377131,16.7891892 31.0298337,17.2484407 C27.3165281,17.6407484 24.3823285,20.5748441 23.9900208,24.2882536 L20.5912682,24.2882536 C21.0505198,18.0589397 26.4727651,13.3813929 32.7019751,13.8407484 C38.931185,14.300104 43.6088358,19.7222453 43.1494802,25.9514553 C42.6901247,32.1806653 37.2679834,36.858316 31.0387734,36.3990644 C25.4483368,35.9869023 21.0034304,31.5418919 20.5912682,25.9514553 L23.9900208,25.9514553 C24.4492723,30.2987526 28.345738,33.4505198 32.6930353,32.9912682 Z"/>
    <rect width="6.653" height="1.663" x="8.316" y=".001"/>
    <rect width="6.653" height="1.663" x="14.969" y="5.822"/>
    <rect width="1.663" height="1.663" x="4.99" y=".001"/>
    <rect width="6.653" height="1.663" x="3.326" y="15.801"/>
    <rect width="1.663" height="1.663" y="15.801"/>
    <rect width="4.99" height="1.663" x="6.653" y="34.096"/>
    <rect width="1.663" height="1.663" x="3.326" y="34.096"/>
    <rect width="1.663" height="1.663" x="16.632" y="41.581"/>
    <rect width="6.653" height="1.663" x="3.326" y="48.233"/>
    <rect width="1.663" height="1.663" y="48.233"/>
  </g>
</svg>
