<svg xmlns="http://www.w3.org/2000/svg" width="50" height="50" viewBox="0 0 50 50">
  <g fill="#B6500F" fill-rule="evenodd">
    <path fill-rule="nonzero" d="M36.5907484,14.1377339 C37.0506237,14.1377339 37.4223493,13.7660083 37.4223493,13.3061331 L37.4223493,11.0616424 L48.8502079,14.1094595 C48.920894,14.1285863 48.9932432,14.1377339 49.0647609,14.1377339 C49.2460499,14.1377339 49.4248441,14.0786902 49.5712058,13.9655925 C49.7757796,13.80842 49.8963617,13.5647609 49.8963617,13.3061331 L49.8963617,0.832120582 C49.8963617,0.573492723 49.7757796,0.32983368 49.5712058,0.172661123 C49.3658004,0.0154885655 49.1005198,-0.0393970894 48.8502079,0.0287941788 L36.4826403,3.32692308 L33.2643451,3.32692308 C32.8044699,3.32692308 32.4327443,3.69864865 32.4327443,4.15852391 L32.4327443,9.1481289 L28.6572765,9.1481289 C29.4506237,8.26413721 29.9379418,7.10072765 29.9379418,5.82172557 C29.9379418,3.06995842 27.700104,0.832120582 24.9483368,0.832120582 C22.1965696,0.832120582 19.9587318,3.06995842 19.9587318,5.82172557 C19.9587318,7.10072765 20.4460499,8.26413721 21.2393971,9.1481289 L19.127131,9.1481289 C18.6680873,9.1481289 18.2955301,8.77557173 18.2955301,8.31652807 L18.2955301,0.832120582 C18.2955301,0.372245322 17.9238046,0.00051975052 17.4639293,0.00051975052 L14.137526,0.00051975052 C13.6776507,0.00051975052 13.3059252,0.372245322 13.3059252,0.832120582 L13.3059252,8.31652807 C13.3059252,11.5256757 15.9179834,14.1377339 19.127131,14.1377339 L19.9587318,14.1377339 L19.9587318,19.0325364 L17.6335759,29.1065489 L17.4639293,29.1065489 C17.2144491,29.1065489 16.979106,29.218815 16.8211019,29.4109148 L1.38814969,48.233368 L0.000311850312,48.233368 L0.000311850312,49.8965696 L1.78243243,49.8965696 L48.1150728,49.8965696 L49.8963617,49.8965696 L49.8963617,48.233368 L48.50842,48.233368 L33.0755717,29.4109148 C32.9175676,29.218815 32.6822245,29.1065489 32.4327443,29.1065489 L32.2630977,29.1065489 L29.9379418,19.0325364 L29.9379418,14.1377339 L36.5907484,14.1377339 Z M37.4223493,4.79802495 L48.2331601,1.91486486 L48.2331601,12.2233888 L37.4223493,9.34022869 L37.4223493,4.79802495 Z M34.0959459,4.99012474 L35.7591476,4.99012474 L35.7591476,9.1481289 L34.0959459,9.1481289 L34.0959459,4.99012474 Z M24.9483368,2.49532225 C26.7828482,2.49532225 28.2747401,3.98721414 28.2747401,5.82172557 C28.2747401,7.65623701 26.7828482,9.1481289 24.9483368,9.1481289 C23.1138254,9.1481289 21.6219335,7.65623701 21.6219335,5.82172557 C21.6219335,3.98721414 23.1137214,2.49532225 24.9483368,2.49532225 Z M46.3570686,48.233368 L3.53950104,48.233368 L12.6546778,37.1156965 L16.0442827,40.5053015 C16.3694387,40.8304574 16.8950104,40.8304574 17.2201663,40.5053015 L20.7902287,36.9352391 L24.3602911,40.5053015 C24.685447,40.8304574 25.2110187,40.8304574 25.5361746,40.5053015 L29.106237,36.9352391 L32.6762994,40.5053015 C32.8384615,40.6674636 33.0513514,40.7489605 33.2642412,40.7489605 C33.477131,40.7489605 33.6900208,40.6674636 33.852183,40.5053015 L37.2417879,37.1156965 L46.3570686,48.233368 Z M32.0385655,30.7697505 L36.1824324,35.8233888 L33.2643451,38.7414761 L29.6942827,35.1714137 C29.3691268,34.8462578 28.8435551,34.8462578 28.5183992,35.1714137 L24.9483368,38.7414761 L21.3782744,35.1714137 C21.0531185,34.8462578 20.5275468,34.8462578 20.2023909,35.1714137 L16.6323285,38.7414761 L13.7142412,35.8233888 L17.8581081,30.7697505 L18.2955301,30.7697505 L22.4535343,30.7697505 L27.4431393,30.7697505 L31.6011435,30.7697505 L32.0385655,30.7697505 Z M23.5419958,29.1065489 L24.9482328,23.9514553 L26.3544699,29.1065489 L23.5419958,29.1065489 Z M28.2955301,19.3144491 L30.5558212,29.1065489 L28.0784823,29.1065489 L25.7508316,20.5718295 C25.6518711,20.2100832 25.3233888,19.9589397 24.9483368,19.9589397 C24.5732848,19.9589397 24.2448025,20.2100832 24.145842,20.5718295 L21.8181913,29.1065489 L19.3408524,29.1065489 L21.6011435,19.3144491 C21.6144491,19.2529106 21.6219335,19.1897089 21.6219335,19.1273389 L21.6219335,13.3061331 C21.6219335,12.8462578 21.2502079,12.4745322 20.7903326,12.4745322 L19.127131,12.4745322 C16.8344075,12.4745322 14.9691268,10.6092516 14.9691268,8.31652807 L14.9691268,1.66372141 L16.6323285,1.66372141 L16.6323285,8.31652807 C16.6323285,9.69199584 17.7516632,10.8113306 19.127131,10.8113306 L33.2643451,10.8113306 L35.7591476,10.8113306 L35.7591476,12.4745322 L29.106341,12.4745322 C28.6464657,12.4745322 28.2747401,12.8462578 28.2747401,13.3061331 L28.2747401,19.1273389 C28.2747401,19.1897089 28.2822245,19.2529106 28.2955301,19.3144491 Z"/>
    <rect width="1.663" height="1.663" x="24.117" y="44.907"/>
    <rect width="1.663" height="1.663" x="27.443" y="44.907"/>
    <rect width="1.663" height="1.663" x="20.79" y="44.907"/>
    <path fill-rule="nonzero" d="M18.2132017,16.2716216 C18.0743243,15.9847193 17.7840956,15.8009356 17.4639293,15.8009356 L2.49511435,15.8009356 C1.11964657,15.8009356 0.000311850312,16.9202703 0.000311850312,18.295738 L0.000311850312,24.9485447 C0.000311850312,26.3240125 1.11964657,27.4433472 2.49511435,27.4433472 L12.4743243,27.4433472 C13.8497921,27.4433472 14.9691268,26.3240125 14.9691268,24.9485447 L14.9691268,21.0824324 L18.1134096,17.1522869 C18.3129938,16.9019751 18.3512474,16.5601871 18.2132017,16.2716216 Z M13.4880457,20.27079 C13.3699584,20.418815 13.3059252,20.6009356 13.3059252,20.7905405 L13.3059252,24.9485447 C13.3059252,25.4075884 12.933368,25.7801455 12.4743243,25.7801455 L2.49511435,25.7801455 C2.03607069,25.7801455 1.66351351,25.4075884 1.66351351,24.9485447 L1.66351351,18.295738 C1.66351351,17.8366944 2.03607069,17.4641372 2.49511435,17.4641372 L15.733368,17.4641372 L13.4880457,20.27079 Z"/>
    <rect width="8.316" height="1.663" x="3.327" y="19.127"/>
    <rect width="8.316" height="1.663" x="3.327" y="22.454"/>
  </g>
</svg>
