<svg xmlns="http://www.w3.org/2000/svg" width="15" height="15" viewBox="0 0 15 15">
  <g fill="none" fill-rule="evenodd" transform="translate(0 -5)">
    <rect width="15" height="25"/>
    <path fill="#B6500F" d="M7.5,5 C8.85080661,5 10.1008065,5.33770177 11.25,6.01310484 C12.3991935,6.68850791 13.3114921,7.60080645 13.9868952,8.75 C14.6622982,9.89919355 15,11.1491934 15,12.5 C15,13.8508066 14.6622982,15.1008065 13.9868952,16.25 C13.3114921,17.3991935 12.3991935,18.3114921 11.25,18.9868952 C10.1008065,19.6622982 8.85080661,20 7.5,20 C6.14919339,20 4.89919355,19.6622982 3.75,18.9868952 C2.60080645,18.3114921 1.68850791,17.3991935 1.01310484,16.25 C0.337701767,15.1008065 0,13.8508066 0,12.5 C0,11.1491934 0.337701767,9.89919355 1.01310484,8.75 C1.68850791,7.60080645 2.60080645,6.68850791 3.75,6.01310484 C4.89919355,5.33770177 6.14919339,5 7.5,5 Z M10.9475806,11.9858871 L6.83467742,7.87298387 C6.69354823,7.73185468 6.52217757,7.66129032 6.32056452,7.66129032 C6.11895146,7.66129032 5.95766129,7.73185468 5.83669355,7.87298387 L5.32258065,8.38709677 C5.16129048,8.54838694 5.08064516,8.72479854 5.08064516,8.91633065 C5.08064516,9.10786275 5.16129048,9.27419339 5.32258065,9.41532258 L8.37701613,12.5 L5.32258065,15.5846774 C5.16129048,15.7258066 5.08064516,15.8971773 5.08064516,16.0987903 C5.08064516,16.3004034 5.16129048,16.471774 5.32258065,16.6129032 L5.83669355,17.0967742 C5.97782273,17.2580644 6.14415338,17.3387097 6.33568548,17.3387097 C6.52721759,17.3387097 6.69354823,17.2681453 6.83467742,17.1270161 L10.9475806,13.0141129 C11.0887098,12.8729837 11.1592742,12.7016131 11.1592742,12.5 C11.1592742,12.2983869 11.0887098,12.1270163 10.9475806,11.9858871 Z"/>
  </g>
</svg>
