<svg width="165" height="45" xmlns="http://www.w3.org/2000/svg">
  <g fill="none">
    <path d="M155 40l5 5H10C4.477 45 0 40.523 0 35V15a10 10 0 0 1 5.884-9.116A9.964 9.964 0 0 0 5 10v20c0 5.523 4.477 10 10 10h140z" fill-opacity=".2" fill="#000"/>
    <path d="M15 0h130c5.523 0 10 4.477 10 10v20l10 10H15C9.477 40 5 35.523 5 30V10C5 4.477 9.477 0 15 0zm3.833 9c-.177 0-.237.15-.237.24l-3.93 20.52c0 .15.09.24.237.24h2.66c.147 0 .236-.09.236-.24l.62-3.69h3.162l.62 3.69c0 .15.118.24.237.24h2.659c.148 0 .236-.09.236-.24L21.522 9.24c0-.09-.06-.24-.237-.24h-2.452zM20 16.667l.844 5.345a.854.854 0 1 1-1.688 0L20 16.667zM37.097 30c.148 0 .236-.06.236-.24v-2.55c0-.12-.088-.24-.236-.24h-5.636V9.24c0-.15-.088-.24-.236-.24H28.57c-.147 0-.236.09-.236.24v20.52c0 .09.06.24.236.24h8.528zm6.041-16.447c0-.566.148-1.788 1.362-1.788 1.066 0 1.362 1.013 1.362 1.788v.864c0 .15.118.209.237.209h2.664c.148 0 .237-.06.237-.209v-1.132c0-2.682-1.332-4.618-4.5-4.618-2.99 0-4.5 2.115-4.5 4.618v12.097C40 27.885 41.51 30 44.5 30c2.96 0 4.5-1.937 4.5-4.618v-1.4c0-.15-.089-.21-.237-.21H46.1c-.119 0-.237.06-.237.21v1.132c0 .774-.296 1.787-1.362 1.787-1.214 0-1.362-1.221-1.362-1.787v-11.56zm18.195 11.829V13.285c0-2.682-1.332-4.618-4.5-4.618-2.99 0-4.5 2.115-4.5 4.618v12.097c0 2.503 1.421 4.618 4.5 4.618 3.08 0 4.5-2.115 4.5-4.618zm-6-11.962c0-.565.145-1.753 1.334-1.753 1.043 0 1.333.98 1.333 1.753v11.827c0 .772-.145 1.753-1.333 1.753-1.102 0-1.334-.98-1.334-1.753V13.42zM74.431 30c.147 0 .236-.06.236-.24V9.24c0-.15-.089-.24-.236-.24h-2.656c-.148 0-.236.09-.236.24v8.58h-2.744V9.24c0-.15-.089-.24-.237-.24h-2.655c-.148 0-.236.09-.236.24v20.52c0 .09.059.24.236.24h2.655c.148 0 .237-.06.237-.24v-8.91h2.744v8.91c0 .09.059.24.236.24h2.656zM88 25.382V13.285c0-2.682-1.332-4.618-4.5-4.618-2.99 0-4.5 2.115-4.5 4.618v12.097C79 27.885 80.421 30 83.5 30c3.079 0 4.5-2.115 4.5-4.618zM82 13.42c0-.565.145-1.753 1.333-1.753 1.044 0 1.334.98 1.334 1.753v11.827c0 .772-.145 1.753-1.334 1.753C82.232 27 82 26.02 82 25.247V13.42zM100.764 30c.147 0 .236-.06.236-.24v-2.55c0-.12-.089-.24-.236-.24h-5.636V9.24c0-.15-.089-.24-.236-.24h-2.656c-.147 0-.236.09-.236.24v20.52c0 .09.059.24.236.24h8.528zm5.676-.333c.142 0 .227-.057.227-.227v-2.547c0-.141-.085-.226-.227-.226h-2.547c-.141 0-.226.085-.226.226v2.547c0 .085.056.227.226.227h2.547zm12.227-4.285V13.285c0-2.682-1.333-4.618-4.5-4.618-2.99 0-4.5 2.115-4.5 4.618v12.097c0 2.503 1.42 4.618 4.5 4.618 3.079 0 4.5-2.115 4.5-4.618zM113 13.42c0-.565.145-1.753 1.333-1.753 1.044 0 1.334.98 1.334 1.753v11.827c0 .772-.145 1.753-1.334 1.753-1.101 0-1.333-.98-1.333-1.753V13.42zM131.587 30c.147 0 .265-.06.236-.24l-2.567-9.24c1.977-.75 2.744-2.61 2.744-4.59V13.8c0-3.12-1.18-4.8-4.869-4.8h-3.895c-.147 0-.236.09-.236.24v20.52c0 .09.059.24.236.24h2.656c.147 0 .236-.06.236-.24v-8.91l2.272 8.91c0 .09.059.24.236.24h2.95zm-4.279-18C128.8 12 129 13.075 129 14.034v1.715c0 .755-.115 1.918-1.663 1.918h-1.004V12h.975zm11.497 13.114v-11.56c0-.567.148-1.789 1.362-1.789 1.065 0 1.362 1.013 1.362 1.788v.864c0 .15.118.209.236.209h2.665c.148 0 .237-.06.237-.209v-1.132c0-2.682-1.333-4.618-4.5-4.618-2.99 0-4.5 2.115-4.5 4.618v12.097c0 2.503 1.42 4.618 4.5 4.618 3.079 0 4.5-2.115 4.5-4.618v-7.449c0-.149-.09-.238-.237-.238h-3.967a.234.234 0 0 0-.237.238v2.503c0 .119.06.238.237.238h1.066v4.44c0 .774-.149 1.787-1.362 1.787-1.125 0-1.362-1.013-1.362-1.787z" fill="#FFF"/>
    <path d="M18.833 9h2.452c.178 0 .237.15.237.24l3.811 20.52c0 .15-.088.24-.236.24h-2.66a.235.235 0 0 1-.236-.24l-.62-3.69h-3.162l-.62 3.69c0 .15-.089.24-.237.24h-2.659c-.148 0-.236-.09-.236-.24l3.93-20.52c0-.09.059-.24.236-.24zM20 16.667l-.844 5.345a.854.854 0 1 0 1.688 0L20 16.667zM37.097 30c.148 0 .236-.06.236-.24v-2.55c0-.12-.088-.24-.236-.24h-5.636V9.24c0-.15-.088-.24-.236-.24H28.57c-.147 0-.236.09-.236.24v20.52c0 .09.06.24.236.24h8.528zm6.041-16.447c0-.566.148-1.788 1.362-1.788 1.066 0 1.362 1.013 1.362 1.788v.864c0 .15.118.209.237.209h2.664c.148 0 .237-.06.237-.209v-1.132c0-2.682-1.332-4.618-4.5-4.618-2.99 0-4.5 2.115-4.5 4.618v12.097C40 27.885 41.51 30 44.5 30c2.96 0 4.5-1.937 4.5-4.618v-1.4c0-.15-.089-.21-.237-.21H46.1c-.119 0-.237.06-.237.21v1.132c0 .774-.296 1.787-1.362 1.787-1.214 0-1.362-1.221-1.362-1.787v-11.56zm18.195 11.829c0 2.503-1.42 4.618-4.5 4.618-3.079 0-4.5-2.115-4.5-4.618V13.285c0-2.503 1.51-4.618 4.5-4.618 3.168 0 4.5 1.936 4.5 4.618v12.097zm-6-11.962v11.827c0 .772.232 1.753 1.334 1.753C57.855 27 58 26.02 58 25.247V13.42c0-.773-.29-1.753-1.333-1.753-1.189 0-1.334 1.188-1.334 1.753zM74.431 30c.147 0 .236-.06.236-.24V9.24c0-.15-.089-.24-.236-.24h-2.656c-.148 0-.236.09-.236.24v8.58h-2.744V9.24c0-.15-.089-.24-.237-.24h-2.655c-.148 0-.236.09-.236.24v20.52c0 .09.059.24.236.24h2.655c.148 0 .237-.06.237-.24v-8.91h2.744v8.91c0 .09.059.24.236.24h2.656zM88 25.382C88 27.885 86.579 30 83.5 30c-3.079 0-4.5-2.115-4.5-4.618V13.285c0-2.503 1.51-4.618 4.5-4.618 3.168 0 4.5 1.936 4.5 4.618v12.097zM82 13.42v11.827c0 .772.232 1.753 1.333 1.753 1.189 0 1.334-.98 1.334-1.753V13.42c0-.773-.29-1.753-1.334-1.753-1.188 0-1.333 1.188-1.333 1.753zM100.764 30c.147 0 .236-.06.236-.24v-2.55c0-.12-.089-.24-.236-.24h-5.636V9.24c0-.15-.089-.24-.236-.24h-2.656c-.147 0-.236.09-.236.24v20.52c0 .09.059.24.236.24h8.528zm5.676-.333c.142 0 .227-.057.227-.227v-2.547c0-.141-.085-.226-.227-.226h-2.547c-.141 0-.226.085-.226.226v2.547c0 .085.056.227.226.227h2.547zm12.227-4.285c0 2.503-1.421 4.618-4.5 4.618-3.08 0-4.5-2.115-4.5-4.618V13.285c0-2.503 1.51-4.618 4.5-4.618 3.167 0 4.5 1.936 4.5 4.618v12.097zM113 13.42v11.827c0 .772.232 1.753 1.333 1.753 1.189 0 1.334-.98 1.334-1.753V13.42c0-.773-.29-1.753-1.334-1.753-1.188 0-1.333 1.188-1.333 1.753zM131.587 30h-2.95c-.178 0-.237-.15-.237-.24l-2.272-8.91v8.91c0 .18-.089.24-.236.24h-2.656c-.177 0-.236-.15-.236-.24V9.24c0-.15.089-.24.236-.24h3.895C130.82 9 132 10.68 132 13.8v2.13c0 1.98-.767 3.84-2.744 4.59l2.567 9.24c.03.18-.089.24-.236.24zm-4.279-18h-.975v5.667h1.004c1.548 0 1.663-1.163 1.663-1.918v-1.715c0-.959-.2-2.034-1.692-2.034zm11.497 13.114v-11.56c0-.567.148-1.789 1.362-1.789 1.065 0 1.362 1.013 1.362 1.788v.864c0 .15.118.209.236.209h2.665c.148 0 .237-.06.237-.209v-1.132c0-2.682-1.333-4.618-4.5-4.618-2.99 0-4.5 2.115-4.5 4.618v12.097c0 2.503 1.42 4.618 4.5 4.618 3.079 0 4.5-2.115 4.5-4.618v-7.449c0-.149-.09-.238-.237-.238h-3.967a.234.234 0 0 0-.237.238v2.503c0 .119.06.238.237.238h1.066v4.44c0 .774-.149 1.787-1.362 1.787-1.125 0-1.362-1.013-1.362-1.787z" fill="#DD7516"/>
    <path d="M18.833 9h2.452c.178 0 .237.15.237.24l3.811 20.52c0 .15-.088.24-.236.24h-2.66a.235.235 0 0 1-.236-.24l-.62-3.69h-3.162l-.62 3.69c0 .15-.089.24-.237.24h-2.659c-.148 0-.236-.09-.236-.24l3.93-20.52c0-.09.059-.24.236-.24zM20 16.667l-.844 5.345a.854.854 0 1 0 1.688 0L20 16.667zM37.097 30c.148 0 .236-.06.236-.24v-2.55c0-.12-.088-.24-.236-.24h-5.636V9.24c0-.15-.088-.24-.236-.24H28.57c-.147 0-.236.09-.236.24v20.52c0 .09.06.24.236.24h8.528zm6.041-16.447c0-.566.148-1.788 1.362-1.788 1.066 0 1.362 1.013 1.362 1.788v.864c0 .15.118.209.237.209h2.664c.148 0 .237-.06.237-.209v-1.132c0-2.682-1.332-4.618-4.5-4.618-2.99 0-4.5 2.115-4.5 4.618v12.097C40 27.885 41.51 30 44.5 30c2.96 0 4.5-1.937 4.5-4.618v-1.4c0-.15-.089-.21-.237-.21H46.1c-.119 0-.237.06-.237.21v1.132c0 .774-.296 1.787-1.362 1.787-1.214 0-1.362-1.221-1.362-1.787v-11.56zm18.195 11.829c0 2.503-1.42 4.618-4.5 4.618-3.079 0-4.5-2.115-4.5-4.618V13.285c0-2.503 1.51-4.618 4.5-4.618 3.168 0 4.5 1.936 4.5 4.618v12.097zm-6-11.962v11.827c0 .772.232 1.753 1.334 1.753C57.855 27 58 26.02 58 25.247V13.42c0-.773-.29-1.753-1.333-1.753-1.189 0-1.334 1.188-1.334 1.753zM74.431 30c.147 0 .236-.06.236-.24V9.24c0-.15-.089-.24-.236-.24h-2.656c-.148 0-.236.09-.236.24v8.58h-2.744V9.24c0-.15-.089-.24-.237-.24h-2.655c-.148 0-.236.09-.236.24v20.52c0 .09.059.24.236.24h2.655c.148 0 .237-.06.237-.24v-8.91h2.744v8.91c0 .09.059.24.236.24h2.656zM88 25.382C88 27.885 86.579 30 83.5 30c-3.079 0-4.5-2.115-4.5-4.618V13.285c0-2.503 1.51-4.618 4.5-4.618 3.168 0 4.5 1.936 4.5 4.618v12.097zM82 13.42v11.827c0 .772.232 1.753 1.333 1.753 1.189 0 1.334-.98 1.334-1.753V13.42c0-.773-.29-1.753-1.334-1.753-1.188 0-1.333 1.188-1.333 1.753zM100.764 30c.147 0 .236-.06.236-.24v-2.55c0-.12-.089-.24-.236-.24h-5.636V9.24c0-.15-.089-.24-.236-.24h-2.656c-.147 0-.236.09-.236.24v20.52c0 .09.059.24.236.24h8.528zm5.676-.333c.142 0 .227-.057.227-.227v-2.547c0-.141-.085-.226-.227-.226h-2.547c-.141 0-.226.085-.226.226v2.547c0 .085.056.227.226.227h2.547zm12.227-4.285c0 2.503-1.421 4.618-4.5 4.618-3.08 0-4.5-2.115-4.5-4.618V13.285c0-2.503 1.51-4.618 4.5-4.618 3.167 0 4.5 1.936 4.5 4.618v12.097zM113 13.42v11.827c0 .772.232 1.753 1.333 1.753 1.189 0 1.334-.98 1.334-1.753V13.42c0-.773-.29-1.753-1.334-1.753-1.188 0-1.333 1.188-1.333 1.753zM131.587 30h-2.95c-.178 0-.237-.15-.237-.24l-2.272-8.91v8.91c0 .18-.089.24-.236.24h-2.656c-.177 0-.236-.15-.236-.24V9.24c0-.15.089-.24.236-.24h3.895C130.82 9 132 10.68 132 13.8v2.13c0 1.98-.767 3.84-2.744 4.59l2.567 9.24c.03.18-.089.24-.236.24zm-4.279-18h-.975v5.667h1.004c1.548 0 1.663-1.163 1.663-1.918v-1.715c0-.959-.2-2.034-1.692-2.034zm11.497 13.114v-11.56c0-.567.148-1.789 1.362-1.789 1.065 0 1.362 1.013 1.362 1.788v.864c0 .15.118.209.236.209h2.665c.148 0 .237-.06.237-.209v-1.132c0-2.682-1.333-4.618-4.5-4.618-2.99 0-4.5 2.115-4.5 4.618v12.097c0 2.503 1.42 4.618 4.5 4.618 3.079 0 4.5-2.115 4.5-4.618v-7.449c0-.149-.09-.238-.237-.238h-3.967a.234.234 0 0 0-.237.238v2.503c0 .119.06.238.237.238h1.066v4.44c0 .774-.149 1.787-1.362 1.787-1.125 0-1.362-1.013-1.362-1.787z" style="mix-blend-mode:overlay" fill="#000" fill-opacity=".15"/>
    <path d="M18.833 9h2.452c.178 0 .237.15.237.24l3.811 20.52c0 .15-.088.24-.236.24h-2.66a.235.235 0 0 1-.236-.24l-.62-3.69h-3.162l-.62 3.69c0 .15-.089.24-.237.24h-2.659c-.148 0-.236-.09-.236-.24l3.93-20.52c0-.09.059-.24.236-.24zM20 16.667l-.844 5.345a.854.854 0 1 0 1.688 0L20 16.667zM37.097 30c.148 0 .236-.06.236-.24v-2.55c0-.12-.088-.24-.236-.24h-5.636V9.24c0-.15-.088-.24-.236-.24H28.57c-.147 0-.236.09-.236.24v20.52c0 .09.06.24.236.24h8.528zm6.041-16.447c0-.566.148-1.788 1.362-1.788 1.066 0 1.362 1.013 1.362 1.788v.864c0 .15.118.209.237.209h2.664c.148 0 .237-.06.237-.209v-1.132c0-2.682-1.332-4.618-4.5-4.618-2.99 0-4.5 2.115-4.5 4.618v12.097C40 27.885 41.51 30 44.5 30c2.96 0 4.5-1.937 4.5-4.618v-1.4c0-.15-.089-.21-.237-.21H46.1c-.119 0-.237.06-.237.21v1.132c0 .774-.296 1.787-1.362 1.787-1.214 0-1.362-1.221-1.362-1.787v-11.56zm18.195 11.829c0 2.503-1.42 4.618-4.5 4.618-3.079 0-4.5-2.115-4.5-4.618V13.285c0-2.503 1.51-4.618 4.5-4.618 3.168 0 4.5 1.936 4.5 4.618v12.097zm-6-11.962v11.827c0 .772.232 1.753 1.334 1.753C57.855 27 58 26.02 58 25.247V13.42c0-.773-.29-1.753-1.333-1.753-1.189 0-1.334 1.188-1.334 1.753zM74.431 30c.147 0 .236-.06.236-.24V9.24c0-.15-.089-.24-.236-.24h-2.656c-.148 0-.236.09-.236.24v8.58h-2.744V9.24c0-.15-.089-.24-.237-.24h-2.655c-.148 0-.236.09-.236.24v20.52c0 .09.059.24.236.24h2.655c.148 0 .237-.06.237-.24v-8.91h2.744v8.91c0 .09.059.24.236.24h2.656zM88 25.382C88 27.885 86.579 30 83.5 30c-3.079 0-4.5-2.115-4.5-4.618V13.285c0-2.503 1.51-4.618 4.5-4.618 3.168 0 4.5 1.936 4.5 4.618v12.097zM82 13.42v11.827c0 .772.232 1.753 1.333 1.753 1.189 0 1.334-.98 1.334-1.753V13.42c0-.773-.29-1.753-1.334-1.753-1.188 0-1.333 1.188-1.333 1.753zM100.764 30c.147 0 .236-.06.236-.24v-2.55c0-.12-.089-.24-.236-.24h-5.636V9.24c0-.15-.089-.24-.236-.24h-2.656c-.147 0-.236.09-.236.24v20.52c0 .09.059.24.236.24h8.528zm5.676-.333c.142 0 .227-.057.227-.227v-2.547c0-.141-.085-.226-.227-.226h-2.547c-.141 0-.226.085-.226.226v2.547c0 .085.056.227.226.227h2.547zm12.227-4.285c0 2.503-1.421 4.618-4.5 4.618-3.08 0-4.5-2.115-4.5-4.618V13.285c0-2.503 1.51-4.618 4.5-4.618 3.167 0 4.5 1.936 4.5 4.618v12.097zM113 13.42v11.827c0 .772.232 1.753 1.333 1.753 1.189 0 1.334-.98 1.334-1.753V13.42c0-.773-.29-1.753-1.334-1.753-1.188 0-1.333 1.188-1.333 1.753zM131.587 30h-2.95c-.178 0-.237-.15-.237-.24l-2.272-8.91v8.91c0 .18-.089.24-.236.24h-2.656c-.177 0-.236-.15-.236-.24V9.24c0-.15.089-.24.236-.24h3.895C130.82 9 132 10.68 132 13.8v2.13c0 1.98-.767 3.84-2.744 4.59l2.567 9.24c.03.18-.089.24-.236.24zm-4.279-18h-.975v5.667h1.004c1.548 0 1.663-1.163 1.663-1.918v-1.715c0-.959-.2-2.034-1.692-2.034zm11.497 13.114v-11.56c0-.567.148-1.789 1.362-1.789 1.065 0 1.362 1.013 1.362 1.788v.864c0 .15.118.209.236.209h2.665c.148 0 .237-.06.237-.209v-1.132c0-2.682-1.333-4.618-4.5-4.618-2.99 0-4.5 2.115-4.5 4.618v12.097c0 2.503 1.42 4.618 4.5 4.618 3.079 0 4.5-2.115 4.5-4.618v-7.449c0-.149-.09-.238-.237-.238h-3.967a.234.234 0 0 0-.237.238v2.503c0 .119.06.238.237.238h1.066v4.44c0 .774-.149 1.787-1.362 1.787-1.125 0-1.362-1.013-1.362-1.787z" fill="#000" fill-opacity=".15"/>
  </g>
</svg>