<svg width="284" height="60" xmlns="http://www.w3.org/2000/svg">
  <g fill-rule="nonzero" fill="none">
    <path d="M155 40l5 5H10C4.477 45 0 40.523 0 35V15c0-4.056 2.414-7.547 5.884-9.116A9.964 9.964 0 0 0 5 10v20c0 5.523 4.477 10 10 10h140z" fill-opacity=".2" fill="#000"/>
    <path d="M15 0h130c5.523 0 10 4.477 10 10v20l10 10H15C9.477 40 5 35.523 5 30V10C5 4.477 9.477 0 15 0zm3.833 9c-.177 0-.237.15-.237.24l-3.93 20.52c0 .15.09.24.237.24h2.66c.147 0 .236-.09.236-.24l.62-3.69h3.162l.62 3.69c0 .15.118.24.237.24h2.659c.148 0 .236-.09.236-.24L21.522 9.24c0-.09-.06-.24-.237-.24h-2.452zM20 16.667l.844 5.345a.854.854 0 1 1-1.688 0L20 16.667zM37.097 30c.148 0 .236-.06.236-.24v-2.55c0-.12-.088-.24-.236-.24h-5.636V9.24c0-.15-.088-.24-.236-.24H28.57c-.147 0-.236.09-.236.24v20.52c0 .09.06.24.236.24h8.528zm6.041-16.447c0-.566.148-1.788 1.362-1.788 1.066 0 1.362 1.013 1.362 1.788v.864c0 .15.118.209.237.209h2.664c.148 0 .237-.06.237-.209v-1.132c0-2.682-1.332-4.618-4.5-4.618-2.99 0-4.5 2.115-4.5 4.618v12.097C40 27.885 41.51 30 44.5 30c2.96 0 4.5-1.937 4.5-4.618v-1.4c0-.15-.089-.21-.237-.21H46.1c-.119 0-.237.06-.237.21v1.132c0 .774-.296 1.787-1.362 1.787-1.214 0-1.362-1.221-1.362-1.787v-11.56zm18.195 11.829V13.285c0-2.682-1.332-4.618-4.5-4.618-2.99 0-4.5 2.115-4.5 4.618v12.097c0 2.503 1.421 4.618 4.5 4.618 3.08 0 4.5-2.115 4.5-4.618zm-6-11.962c0-.565.145-1.753 1.334-1.753 1.043 0 1.333.98 1.333 1.753v11.827c0 .772-.145 1.753-1.333 1.753-1.102 0-1.334-.98-1.334-1.753V13.42zM74.431 30c.147 0 .236-.06.236-.24V9.24c0-.15-.089-.24-.236-.24h-2.656c-.148 0-.236.09-.236.24v8.58h-2.744V9.24c0-.15-.089-.24-.237-.24h-2.655c-.148 0-.236.09-.236.24v20.52c0 .09.059.24.236.24h2.655c.148 0 .237-.06.237-.24v-8.91h2.744v8.91c0 .09.059.24.236.24h2.656zM88 25.382V13.285c0-2.682-1.332-4.618-4.5-4.618-2.99 0-4.5 2.115-4.5 4.618v12.097C79 27.885 80.421 30 83.5 30c3.079 0 4.5-2.115 4.5-4.618zM82 13.42c0-.565.145-1.753 1.333-1.753 1.044 0 1.334.98 1.334 1.753v11.827c0 .772-.145 1.753-1.334 1.753C82.232 27 82 26.02 82 25.247V13.42zM100.764 30c.147 0 .236-.06.236-.24v-2.55c0-.12-.089-.24-.236-.24h-5.636V9.24c0-.15-.089-.24-.236-.24h-2.656c-.147 0-.236.09-.236.24v20.52c0 .09.059.24.236.24h8.528zm5.676-.333c.142 0 .227-.057.227-.227v-2.547c0-.141-.085-.226-.227-.226h-2.547c-.141 0-.226.085-.226.226v2.547c0 .085.056.227.226.227h2.547zm12.227-4.285V13.285c0-2.682-1.333-4.618-4.5-4.618-2.99 0-4.5 2.115-4.5 4.618v12.097c0 2.503 1.42 4.618 4.5 4.618 3.079 0 4.5-2.115 4.5-4.618zM113 13.42c0-.565.145-1.753 1.333-1.753 1.044 0 1.334.98 1.334 1.753v11.827c0 .772-.145 1.753-1.334 1.753-1.101 0-1.333-.98-1.333-1.753V13.42zM131.587 30c.147 0 .265-.06.236-.24l-2.567-9.24c1.977-.75 2.744-2.61 2.744-4.59V13.8c0-3.12-1.18-4.8-4.869-4.8h-3.895c-.147 0-.236.09-.236.24v20.52c0 .09.059.24.236.24h2.656c.147 0 .236-.06.236-.24v-8.91l2.272 8.91c0 .09.059.24.236.24h2.95zm-4.279-18C128.8 12 129 13.075 129 14.034v1.715c0 .755-.115 1.918-1.663 1.918h-1.004V12h.975zm11.497 13.114v-11.56c0-.567.148-1.789 1.362-1.789 1.065 0 1.362 1.013 1.362 1.788v.864c0 .15.118.209.236.209h2.665c.148 0 .237-.06.237-.209v-1.132c0-2.682-1.333-4.618-4.5-4.618-2.99 0-4.5 2.115-4.5 4.618v12.097c0 2.503 1.42 4.618 4.5 4.618 3.079 0 4.5-2.115 4.5-4.618v-7.449c0-.149-.09-.238-.237-.238h-3.967a.234.234 0 0 0-.237.238v2.503c0 .119.06.238.237.238h1.066v4.44c0 .774-.149 1.787-1.362 1.787-1.125 0-1.362-1.013-1.362-1.787z" fill="#FFF"/>
    <path d="M18.833 9h2.452c.178 0 .237.15.237.24l3.811 20.52c0 .15-.088.24-.236.24h-2.66a.235.235 0 0 1-.236-.24l-.62-3.69h-3.162l-.62 3.69c0 .15-.089.24-.237.24h-2.659c-.148 0-.236-.09-.236-.24l3.93-20.52c0-.09.059-.24.236-.24zM20 16.667l-.844 5.345a.854.854 0 1 0 1.688 0L20 16.667zM37.097 30c.148 0 .236-.06.236-.24v-2.55c0-.12-.088-.24-.236-.24h-5.636V9.24c0-.15-.088-.24-.236-.24H28.57c-.147 0-.236.09-.236.24v20.52c0 .09.06.24.236.24h8.528zm6.041-16.447c0-.566.148-1.788 1.362-1.788 1.066 0 1.362 1.013 1.362 1.788v.864c0 .15.118.209.237.209h2.664c.148 0 .237-.06.237-.209v-1.132c0-2.682-1.332-4.618-4.5-4.618-2.99 0-4.5 2.115-4.5 4.618v12.097C40 27.885 41.51 30 44.5 30c2.96 0 4.5-1.937 4.5-4.618v-1.4c0-.15-.089-.21-.237-.21H46.1c-.119 0-.237.06-.237.21v1.132c0 .774-.296 1.787-1.362 1.787-1.214 0-1.362-1.221-1.362-1.787v-11.56zm18.195 11.829c0 2.503-1.42 4.618-4.5 4.618-3.079 0-4.5-2.115-4.5-4.618V13.285c0-2.503 1.51-4.618 4.5-4.618 3.168 0 4.5 1.936 4.5 4.618v12.097zm-6-11.962v11.827c0 .772.232 1.753 1.334 1.753C57.855 27 58 26.02 58 25.247V13.42c0-.773-.29-1.753-1.333-1.753-1.189 0-1.334 1.188-1.334 1.753zM74.431 30c.147 0 .236-.06.236-.24V9.24c0-.15-.089-.24-.236-.24h-2.656c-.148 0-.236.09-.236.24v8.58h-2.744V9.24c0-.15-.089-.24-.237-.24h-2.655c-.148 0-.236.09-.236.24v20.52c0 .09.059.24.236.24h2.655c.148 0 .237-.06.237-.24v-8.91h2.744v8.91c0 .09.059.24.236.24h2.656zM88 25.382C88 27.885 86.579 30 83.5 30c-3.079 0-4.5-2.115-4.5-4.618V13.285c0-2.503 1.51-4.618 4.5-4.618 3.168 0 4.5 1.936 4.5 4.618v12.097zM82 13.42v11.827c0 .772.232 1.753 1.333 1.753 1.189 0 1.334-.98 1.334-1.753V13.42c0-.773-.29-1.753-1.334-1.753-1.188 0-1.333 1.188-1.333 1.753zM100.764 30c.147 0 .236-.06.236-.24v-2.55c0-.12-.089-.24-.236-.24h-5.636V9.24c0-.15-.089-.24-.236-.24h-2.656c-.147 0-.236.09-.236.24v20.52c0 .09.059.24.236.24h8.528zm5.676-.333c.142 0 .227-.057.227-.227v-2.547c0-.141-.085-.226-.227-.226h-2.547c-.141 0-.226.085-.226.226v2.547c0 .085.056.227.226.227h2.547zm12.227-4.285c0 2.503-1.421 4.618-4.5 4.618-3.08 0-4.5-2.115-4.5-4.618V13.285c0-2.503 1.51-4.618 4.5-4.618 3.167 0 4.5 1.936 4.5 4.618v12.097zM113 13.42v11.827c0 .772.232 1.753 1.333 1.753 1.189 0 1.334-.98 1.334-1.753V13.42c0-.773-.29-1.753-1.334-1.753-1.188 0-1.333 1.188-1.333 1.753zM131.587 30h-2.95c-.178 0-.237-.15-.237-.24l-2.272-8.91v8.91c0 .18-.089.24-.236.24h-2.656c-.177 0-.236-.15-.236-.24V9.24c0-.15.089-.24.236-.24h3.895C130.82 9 132 10.68 132 13.8v2.13c0 1.98-.767 3.84-2.744 4.59l2.567 9.24c.03.18-.089.24-.236.24zm-4.279-18h-.975v5.667h1.004c1.548 0 1.663-1.163 1.663-1.918v-1.715c0-.959-.2-2.034-1.692-2.034zm11.497 13.114v-11.56c0-.567.148-1.789 1.362-1.789 1.065 0 1.362 1.013 1.362 1.788v.864c0 .15.118.209.236.209h2.665c.148 0 .237-.06.237-.209v-1.132c0-2.682-1.333-4.618-4.5-4.618-2.99 0-4.5 2.115-4.5 4.618v12.097c0 2.503 1.42 4.618 4.5 4.618 3.079 0 4.5-2.115 4.5-4.618v-7.449c0-.149-.09-.238-.237-.238h-3.967a.234.234 0 0 0-.237.238v2.503c0 .119.06.238.237.238h1.066v4.44c0 .774-.149 1.787-1.362 1.787-1.125 0-1.362-1.013-1.362-1.787z" fill="#DD7516"/>
    <path d="M18.833 9h2.452c.178 0 .237.15.237.24l3.811 20.52c0 .15-.088.24-.236.24h-2.66a.235.235 0 0 1-.236-.24l-.62-3.69h-3.162l-.62 3.69c0 .15-.089.24-.237.24h-2.659c-.148 0-.236-.09-.236-.24l3.93-20.52c0-.09.059-.24.236-.24zM20 16.667l-.844 5.345a.854.854 0 1 0 1.688 0L20 16.667zM37.097 30c.148 0 .236-.06.236-.24v-2.55c0-.12-.088-.24-.236-.24h-5.636V9.24c0-.15-.088-.24-.236-.24H28.57c-.147 0-.236.09-.236.24v20.52c0 .09.06.24.236.24h8.528zm6.041-16.447c0-.566.148-1.788 1.362-1.788 1.066 0 1.362 1.013 1.362 1.788v.864c0 .15.118.209.237.209h2.664c.148 0 .237-.06.237-.209v-1.132c0-2.682-1.332-4.618-4.5-4.618-2.99 0-4.5 2.115-4.5 4.618v12.097C40 27.885 41.51 30 44.5 30c2.96 0 4.5-1.937 4.5-4.618v-1.4c0-.15-.089-.21-.237-.21H46.1c-.119 0-.237.06-.237.21v1.132c0 .774-.296 1.787-1.362 1.787-1.214 0-1.362-1.221-1.362-1.787v-11.56zm18.195 11.829c0 2.503-1.42 4.618-4.5 4.618-3.079 0-4.5-2.115-4.5-4.618V13.285c0-2.503 1.51-4.618 4.5-4.618 3.168 0 4.5 1.936 4.5 4.618v12.097zm-6-11.962v11.827c0 .772.232 1.753 1.334 1.753C57.855 27 58 26.02 58 25.247V13.42c0-.773-.29-1.753-1.333-1.753-1.189 0-1.334 1.188-1.334 1.753zM74.431 30c.147 0 .236-.06.236-.24V9.24c0-.15-.089-.24-.236-.24h-2.656c-.148 0-.236.09-.236.24v8.58h-2.744V9.24c0-.15-.089-.24-.237-.24h-2.655c-.148 0-.236.09-.236.24v20.52c0 .09.059.24.236.24h2.655c.148 0 .237-.06.237-.24v-8.91h2.744v8.91c0 .09.059.24.236.24h2.656zM88 25.382C88 27.885 86.579 30 83.5 30c-3.079 0-4.5-2.115-4.5-4.618V13.285c0-2.503 1.51-4.618 4.5-4.618 3.168 0 4.5 1.936 4.5 4.618v12.097zM82 13.42v11.827c0 .772.232 1.753 1.333 1.753 1.189 0 1.334-.98 1.334-1.753V13.42c0-.773-.29-1.753-1.334-1.753-1.188 0-1.333 1.188-1.333 1.753zM100.764 30c.147 0 .236-.06.236-.24v-2.55c0-.12-.089-.24-.236-.24h-5.636V9.24c0-.15-.089-.24-.236-.24h-2.656c-.147 0-.236.09-.236.24v20.52c0 .09.059.24.236.24h8.528zm5.676-.333c.142 0 .227-.057.227-.227v-2.547c0-.141-.085-.226-.227-.226h-2.547c-.141 0-.226.085-.226.226v2.547c0 .085.056.227.226.227h2.547zm12.227-4.285c0 2.503-1.421 4.618-4.5 4.618-3.08 0-4.5-2.115-4.5-4.618V13.285c0-2.503 1.51-4.618 4.5-4.618 3.167 0 4.5 1.936 4.5 4.618v12.097zM113 13.42v11.827c0 .772.232 1.753 1.333 1.753 1.189 0 1.334-.98 1.334-1.753V13.42c0-.773-.29-1.753-1.334-1.753-1.188 0-1.333 1.188-1.333 1.753zM131.587 30h-2.95c-.178 0-.237-.15-.237-.24l-2.272-8.91v8.91c0 .18-.089.24-.236.24h-2.656c-.177 0-.236-.15-.236-.24V9.24c0-.15.089-.24.236-.24h3.895C130.82 9 132 10.68 132 13.8v2.13c0 1.98-.767 3.84-2.744 4.59l2.567 9.24c.03.18-.089.24-.236.24zm-4.279-18h-.975v5.667h1.004c1.548 0 1.663-1.163 1.663-1.918v-1.715c0-.959-.2-2.034-1.692-2.034zm11.497 13.114v-11.56c0-.567.148-1.789 1.362-1.789 1.065 0 1.362 1.013 1.362 1.788v.864c0 .15.118.209.236.209h2.665c.148 0 .237-.06.237-.209v-1.132c0-2.682-1.333-4.618-4.5-4.618-2.99 0-4.5 2.115-4.5 4.618v12.097c0 2.503 1.42 4.618 4.5 4.618 3.079 0 4.5-2.115 4.5-4.618v-7.449c0-.149-.09-.238-.237-.238h-3.967a.234.234 0 0 0-.237.238v2.503c0 .119.06.238.237.238h1.066v4.44c0 .774-.149 1.787-1.362 1.787-1.125 0-1.362-1.013-1.362-1.787z" fill="#000" fill-opacity=".15"/>
    <path d="M18.833 9h2.452c.178 0 .237.15.237.24l3.811 20.52c0 .15-.088.24-.236.24h-2.66a.235.235 0 0 1-.236-.24l-.62-3.69h-3.162l-.62 3.69c0 .15-.089.24-.237.24h-2.659c-.148 0-.236-.09-.236-.24l3.93-20.52c0-.09.059-.24.236-.24zM20 16.667l-.844 5.345a.854.854 0 1 0 1.688 0L20 16.667zM37.097 30c.148 0 .236-.06.236-.24v-2.55c0-.12-.088-.24-.236-.24h-5.636V9.24c0-.15-.088-.24-.236-.24H28.57c-.147 0-.236.09-.236.24v20.52c0 .09.06.24.236.24h8.528zm6.041-16.447c0-.566.148-1.788 1.362-1.788 1.066 0 1.362 1.013 1.362 1.788v.864c0 .15.118.209.237.209h2.664c.148 0 .237-.06.237-.209v-1.132c0-2.682-1.332-4.618-4.5-4.618-2.99 0-4.5 2.115-4.5 4.618v12.097C40 27.885 41.51 30 44.5 30c2.96 0 4.5-1.937 4.5-4.618v-1.4c0-.15-.089-.21-.237-.21H46.1c-.119 0-.237.06-.237.21v1.132c0 .774-.296 1.787-1.362 1.787-1.214 0-1.362-1.221-1.362-1.787v-11.56zm18.195 11.829c0 2.503-1.42 4.618-4.5 4.618-3.079 0-4.5-2.115-4.5-4.618V13.285c0-2.503 1.51-4.618 4.5-4.618 3.168 0 4.5 1.936 4.5 4.618v12.097zm-6-11.962v11.827c0 .772.232 1.753 1.334 1.753C57.855 27 58 26.02 58 25.247V13.42c0-.773-.29-1.753-1.333-1.753-1.189 0-1.334 1.188-1.334 1.753zM74.431 30c.147 0 .236-.06.236-.24V9.24c0-.15-.089-.24-.236-.24h-2.656c-.148 0-.236.09-.236.24v8.58h-2.744V9.24c0-.15-.089-.24-.237-.24h-2.655c-.148 0-.236.09-.236.24v20.52c0 .09.059.24.236.24h2.655c.148 0 .237-.06.237-.24v-8.91h2.744v8.91c0 .09.059.24.236.24h2.656zM88 25.382C88 27.885 86.579 30 83.5 30c-3.079 0-4.5-2.115-4.5-4.618V13.285c0-2.503 1.51-4.618 4.5-4.618 3.168 0 4.5 1.936 4.5 4.618v12.097zM82 13.42v11.827c0 .772.232 1.753 1.333 1.753 1.189 0 1.334-.98 1.334-1.753V13.42c0-.773-.29-1.753-1.334-1.753-1.188 0-1.333 1.188-1.333 1.753zM100.764 30c.147 0 .236-.06.236-.24v-2.55c0-.12-.089-.24-.236-.24h-5.636V9.24c0-.15-.089-.24-.236-.24h-2.656c-.147 0-.236.09-.236.24v20.52c0 .09.059.24.236.24h8.528zm5.676-.333c.142 0 .227-.057.227-.227v-2.547c0-.141-.085-.226-.227-.226h-2.547c-.141 0-.226.085-.226.226v2.547c0 .085.056.227.226.227h2.547zm12.227-4.285c0 2.503-1.421 4.618-4.5 4.618-3.08 0-4.5-2.115-4.5-4.618V13.285c0-2.503 1.51-4.618 4.5-4.618 3.167 0 4.5 1.936 4.5 4.618v12.097zM113 13.42v11.827c0 .772.232 1.753 1.333 1.753 1.189 0 1.334-.98 1.334-1.753V13.42c0-.773-.29-1.753-1.334-1.753-1.188 0-1.333 1.188-1.333 1.753zM131.587 30h-2.95c-.178 0-.237-.15-.237-.24l-2.272-8.91v8.91c0 .18-.089.24-.236.24h-2.656c-.177 0-.236-.15-.236-.24V9.24c0-.15.089-.24.236-.24h3.895C130.82 9 132 10.68 132 13.8v2.13c0 1.98-.767 3.84-2.744 4.59l2.567 9.24c.03.18-.089.24-.236.24zm-4.279-18h-.975v5.667h1.004c1.548 0 1.663-1.163 1.663-1.918v-1.715c0-.959-.2-2.034-1.692-2.034zm11.497 13.114v-11.56c0-.567.148-1.789 1.362-1.789 1.065 0 1.362 1.013 1.362 1.788v.864c0 .15.118.209.236.209h2.665c.148 0 .237-.06.237-.209v-1.132c0-2.682-1.333-4.618-4.5-4.618-2.99 0-4.5 2.115-4.5 4.618v12.097c0 2.503 1.42 4.618 4.5 4.618 3.079 0 4.5-2.115 4.5-4.618v-7.449c0-.149-.09-.238-.237-.238h-3.967a.234.234 0 0 0-.237.238v2.503c0 .119.06.238.237.238h1.066v4.44c0 .774-.149 1.787-1.362 1.787-1.125 0-1.362-1.013-1.362-1.787z" fill="#000" fill-opacity=".15"/>
    <path d="M11.938 54.905l-1.32-3.608a7.895 7.895 0 0 1-.203-.57c-.07-.22-.14-.457-.21-.712-.065.255-.132.494-.203.716-.07.223-.137.416-.202.581l-1.313 3.593h3.45zM15.5 59h-1.56a.666.666 0 0 1-.428-.131.817.817 0 0 1-.247-.327l-.81-2.212H7.963l-.81 2.212a.719.719 0 0 1-.233.316.649.649 0 0 1-.428.142H4.918l4.267-10.845h2.055L15.5 59zm2.686-6.75c.155-.155.318-.299.49-.431a3.068 3.068 0 0 1 1.166-.555 3.1 3.1 0 0 1 .721-.079c.42 0 .793.071 1.118.214.325.142.596.342.813.6.218.257.383.565.495.922.113.358.17.751.17 1.181V59h-1.853v-4.898c0-.47-.108-.833-.323-1.09-.215-.258-.542-.387-.982-.387-.32 0-.62.072-.9.218-.28.145-.545.342-.795.592V59h-1.853v-7.695h1.133c.24 0 .397.112.472.337l.128.608zm16.163 2.655l-1.32-3.608a7.895 7.895 0 0 1-.202-.57c-.07-.22-.14-.457-.21-.712-.065.255-.133.494-.203.716-.07.223-.137.416-.202.581l-1.313 3.593h3.45zM37.912 59h-1.56a.666.666 0 0 1-.428-.131.817.817 0 0 1-.247-.327l-.81-2.212h-4.493l-.81 2.212a.719.719 0 0 1-.232.316.649.649 0 0 1-.428.142H27.33l4.268-10.845h2.055L37.912 59zm.953 0v-7.695h1.132c.24 0 .398.112.473.337l.12.57c.135-.15.276-.287.424-.412a2.56 2.56 0 0 1 1.013-.536c.192-.053.403-.079.633-.079.485 0 .884.131 1.196.394.313.262.546.611.701 1.046.12-.255.27-.474.45-.656a2.46 2.46 0 0 1 .593-.447c.215-.115.444-.2.686-.255.243-.055.486-.082.731-.082.425 0 .803.065 1.133.195.33.13.607.32.832.57.225.25.397.555.514.915.118.36.176.772.176 1.237V59H47.82v-4.898c0-.49-.108-.858-.323-1.106-.215-.247-.53-.371-.945-.371-.19 0-.366.032-.528.097a1.26 1.26 0 0 0-.428.282 1.284 1.284 0 0 0-.289.461c-.07.185-.105.397-.105.637V59h-1.86v-4.898c0-.515-.103-.89-.31-1.124-.208-.236-.512-.353-.912-.353-.27 0-.521.066-.754.199a2.514 2.514 0 0 0-.649.544V59h-1.852zm17.656-4.733c0-.24-.034-.466-.102-.678a1.613 1.613 0 0 0-.303-.559 1.413 1.413 0 0 0-.514-.379 1.763 1.763 0 0 0-.724-.139c-.535 0-.956.153-1.264.458-.307.305-.503.737-.588 1.297h3.495zm-3.533 1.118c.03.395.1.736.21 1.024.11.287.255.525.435.712.18.188.394.328.641.42.248.093.522.139.822.139.3 0 .558-.035.776-.105a3.64 3.64 0 0 0 .57-.233c.162-.085.305-.162.427-.232a.717.717 0 0 1 .357-.105c.155 0 .27.057.345.172l.532.675c-.205.24-.435.442-.69.604a3.87 3.87 0 0 1-.799.39c-.277.098-.56.166-.847.207-.288.04-.566.06-.836.06a4.11 4.11 0 0 1-1.493-.267c-.46-.177-.86-.44-1.2-.787a3.695 3.695 0 0 1-.802-1.29c-.195-.513-.293-1.106-.293-1.782 0-.525.085-1.018.255-1.48.17-.463.414-.866.731-1.208a3.443 3.443 0 0 1 1.163-.814c.457-.2.974-.3 1.549-.3.485 0 .932.077 1.342.232.41.156.763.382 1.058.68.295.297.526.662.693 1.094.168.433.252.926.252 1.481 0 .28-.03.47-.09.567-.06.097-.175.146-.345.146h-4.763zm8.468-2.745c.24-.46.525-.821.855-1.084.33-.262.72-.393 1.17-.393.355 0 .64.077.855.232l-.12 1.387a.358.358 0 0 1-.109.192.3.3 0 0 1-.19.056c-.076 0-.187-.012-.335-.038a2.579 2.579 0 0 0-.43-.037c-.206 0-.388.03-.548.09-.16.06-.304.146-.432.259-.127.112-.24.248-.337.408-.098.16-.189.343-.274.548V59H59.71v-7.695h1.087c.19 0 .323.034.398.101.075.068.125.189.15.364l.112.87zm5.903-1.335V59H65.5v-7.695h1.86zm.255-2.242c0 .16-.032.31-.097.45a1.237 1.237 0 0 1-.638.618 1.162 1.162 0 0 1-.919 0 1.202 1.202 0 0 1-.622-.618 1.162 1.162 0 0 1 0-.915 1.19 1.19 0 0 1 .622-.627 1.162 1.162 0 0 1 .919 0 1.21 1.21 0 0 1 .638.626c.065.146.097.3.097.465zm7.283 3.87a.923.923 0 0 1-.16.164.372.372 0 0 1-.23.06.51.51 0 0 1-.277-.086 8.928 8.928 0 0 0-.323-.195 2.05 2.05 0 0 0-1.087-.281c-.325 0-.61.059-.855.176a1.62 1.62 0 0 0-.611.507c-.163.22-.284.486-.364.798-.08.313-.12.666-.12 1.062 0 .41.044.774.131 1.095.088.32.214.588.379.806.165.217.365.382.6.495.235.112.5.169.795.169.295 0 .534-.037.716-.11a2.26 2.26 0 0 0 .461-.24 7.59 7.59 0 0 0 .327-.24.492.492 0 0 1 .31-.108c.15 0 .263.057.338.172l.533.675a3.35 3.35 0 0 1-.668.604c-.24.163-.488.293-.746.39a3.795 3.795 0 0 1-.795.207c-.272.04-.544.06-.814.06-.475 0-.922-.09-1.342-.267a3.171 3.171 0 0 1-1.103-.776 3.707 3.707 0 0 1-.746-1.249c-.182-.492-.274-1.053-.274-1.683 0-.566.082-1.09.244-1.572.163-.482.401-.9.716-1.252a3.284 3.284 0 0 1 1.17-.829c.465-.2 1-.3 1.605-.3.575 0 1.08.092 1.512.277.432.186.82.45 1.166.795l-.488.675zm5.918 2.782c-.535.025-.985.071-1.35.139a3.599 3.599 0 0 0-.877.258c-.22.106-.378.228-.473.368a.798.798 0 0 0-.142.458c0 .325.096.557.289.697.192.14.443.21.753.21.38 0 .71-.069.987-.206.277-.138.548-.346.813-.627v-1.297zm-4.245-3.338c.885-.81 1.95-1.215 3.195-1.215.45 0 .853.074 1.208.222.355.147.655.352.9.615.245.262.431.576.559.941.127.365.19.765.19 1.2V59h-.84a.85.85 0 0 1-.404-.079c-.095-.052-.17-.158-.225-.319l-.165-.554a6.697 6.697 0 0 1-.57.46 3.103 3.103 0 0 1-1.219.54 3.695 3.695 0 0 1-.754.072c-.325 0-.625-.044-.9-.131a1.978 1.978 0 0 1-.712-.394 1.768 1.768 0 0 1-.465-.652 2.315 2.315 0 0 1-.165-.908 1.7 1.7 0 0 1 .416-1.132c.148-.176.339-.34.574-.495.235-.156.524-.29.866-.406a7.484 7.484 0 0 1 1.196-.28 11.95 11.95 0 0 1 1.56-.132v-.45c0-.515-.11-.896-.33-1.144-.22-.247-.537-.371-.952-.371-.3 0-.549.035-.746.105a3.07 3.07 0 0 0-.522.236c-.15.088-.286.166-.408.236a.81.81 0 0 1-.41.105.534.534 0 0 1-.33-.1.846.846 0 0 1-.217-.237l-.33-.593zm9.661-.127c.155-.155.319-.299.491-.431a3.068 3.068 0 0 1 1.166-.555 3.1 3.1 0 0 1 .72-.079c.42 0 .793.071 1.118.214.325.142.596.342.814.6.217.257.382.565.495.922.112.358.169.751.169 1.181V59H89.35v-4.898c0-.47-.107-.833-.322-1.09-.215-.258-.543-.387-.983-.387-.32 0-.62.072-.9.218-.28.145-.545.342-.795.592V59h-1.852v-7.695h1.132c.24 0 .398.112.473.337l.127.608zm16.164 2.655l-1.32-3.608a7.895 7.895 0 0 1-.203-.57c-.07-.22-.14-.457-.21-.712-.065.255-.132.494-.202.716-.07.223-.138.416-.203.581l-1.312 3.593h3.45zM105.957 59h-1.56a.666.666 0 0 1-.427-.131.817.817 0 0 1-.248-.327l-.81-2.212H98.42l-.81 2.212a.719.719 0 0 1-.233.316.649.649 0 0 1-.427.142h-1.575l4.267-10.845h2.055L105.957 59zm5.64-5.73a1.823 1.823 0 0 0-.685-.54 2.024 2.024 0 0 0-.8-.157c-.28 0-.532.052-.757.157a1.526 1.526 0 0 0-.577.476 2.29 2.29 0 0 0-.368.81 4.65 4.65 0 0 0-.127 1.159c0 .45.036.831.109 1.144.072.312.176.567.31.765.136.197.3.34.496.427.195.088.412.131.652.131.385 0 .713-.08.983-.24.27-.16.525-.387.765-.682v-3.45zm1.853-5.415V59h-1.132c-.245 0-.4-.112-.465-.337l-.158-.743c-.31.355-.666.642-1.068.862-.403.22-.872.33-1.407.33-.42 0-.805-.087-1.155-.262a2.573 2.573 0 0 1-.903-.761c-.253-.333-.448-.744-.585-1.234a6.23 6.23 0 0 1-.207-1.68c0-.57.078-1.1.233-1.59.155-.49.377-.915.667-1.275.29-.36.638-.641 1.043-.844a3.01 3.01 0 0 1 1.365-.303c.43 0 .797.067 1.102.202.305.135.578.317.818.547v-4.057h1.852zm6.796 5.415a1.823 1.823 0 0 0-.686-.54 2.024 2.024 0 0 0-.8-.157c-.28 0-.532.052-.757.157a1.526 1.526 0 0 0-.577.476 2.29 2.29 0 0 0-.368.81 4.65 4.65 0 0 0-.127 1.159c0 .45.036.831.109 1.144.072.312.176.567.31.765.136.197.3.34.496.427.195.088.412.131.652.131.385 0 .713-.08.983-.24.27-.16.525-.387.765-.682v-3.45zm1.852-5.415V59h-1.132c-.245 0-.4-.112-.465-.337l-.158-.743c-.31.355-.666.642-1.068.862-.403.22-.872.33-1.407.33-.42 0-.805-.087-1.155-.262a2.573 2.573 0 0 1-.903-.761c-.253-.333-.448-.744-.585-1.234a6.23 6.23 0 0 1-.207-1.68c0-.57.078-1.1.233-1.59.155-.49.377-.915.667-1.275.29-.36.638-.641 1.043-.844a3.01 3.01 0 0 1 1.365-.303c.43 0 .797.067 1.102.202.305.135.578.317.818.547v-4.057h1.852zm3.886 3.45V59h-1.86v-7.695h1.86zm.255-2.242c0 .16-.032.31-.097.45a1.237 1.237 0 0 1-.638.618 1.162 1.162 0 0 1-.919 0 1.202 1.202 0 0 1-.622-.618 1.162 1.162 0 0 1 0-.915 1.19 1.19 0 0 1 .622-.627 1.162 1.162 0 0 1 .919 0 1.21 1.21 0 0 1 .637.626c.066.146.098.3.098.465zm7.283 3.87a.923.923 0 0 1-.161.164.372.372 0 0 1-.229.06.51.51 0 0 1-.277-.086 8.929 8.929 0 0 0-.323-.195 2.05 2.05 0 0 0-1.088-.281c-.324 0-.61.059-.854.176a1.62 1.62 0 0 0-.612.507c-.162.22-.283.486-.363.798-.08.313-.12.666-.12 1.062 0 .41.043.774.13 1.095.088.32.215.588.38.806.165.217.365.382.6.495.235.112.5.169.795.169.295 0 .533-.037.716-.11a2.26 2.26 0 0 0 .461-.24 7.59 7.59 0 0 0 .326-.24.492.492 0 0 1 .312-.108c.15 0 .262.057.337.172l.533.675a3.35 3.35 0 0 1-.668.604c-.24.163-.489.293-.746.39a3.795 3.795 0 0 1-.795.207c-.273.04-.544.06-.814.06-.475 0-.922-.09-1.342-.267a3.171 3.171 0 0 1-1.103-.776 3.707 3.707 0 0 1-.746-1.249c-.183-.492-.274-1.053-.274-1.683 0-.566.081-1.09.244-1.572.162-.482.401-.9.716-1.252a3.284 3.284 0 0 1 1.17-.829c.465-.2 1-.3 1.605-.3.575 0 1.079.092 1.511.277.433.186.822.45 1.167.795l-.488.675zM143.138 59h-1.853v-6.307h-3.57v4.17c0 .24.059.427.176.562a.608.608 0 0 0 .484.203.872.872 0 0 0 .289-.042 1.59 1.59 0 0 0 .202-.086c.058-.03.11-.059.154-.086a.257.257 0 0 1 .135-.041c.055 0 .1.013.135.04a.626.626 0 0 1 .113.125l.555.9c-.27.225-.58.394-.93.51-.35.115-.713.172-1.088.172-.67 0-1.184-.189-1.541-.566-.358-.378-.536-.899-.536-1.564v-4.297h-.788a.361.361 0 0 1-.255-.098c-.07-.065-.105-.162-.105-.292v-.735l1.238-.21.39-2.093a.412.412 0 0 1 .142-.233.424.424 0 0 1 .27-.082h.96v2.422h5.423V59zm.322-9.968c0 .16-.032.312-.097.454a1.223 1.223 0 0 1-.259.372 1.225 1.225 0 0 1-.851.345c-.16 0-.31-.032-.45-.094a1.202 1.202 0 0 1-.619-.623 1.117 1.117 0 0 1-.094-.453c0-.166.031-.32.094-.462a1.25 1.25 0 0 1 .251-.375c.105-.107.228-.192.368-.255.14-.062.29-.094.45-.094.165 0 .321.032.468.094.148.063.275.148.383.255.107.108.194.233.259.375.065.143.097.296.097.462zm5.108 2.153c.57 0 1.09.092 1.557.277a3.41 3.41 0 0 1 1.2.788c.332.34.588.755.768 1.245.18.49.27 1.037.27 1.643 0 .61-.09 1.16-.27 1.65-.18.49-.436.907-.768 1.252a3.36 3.36 0 0 1-1.2.795 4.196 4.196 0 0 1-1.557.277 4.246 4.246 0 0 1-1.567-.277 3.353 3.353 0 0 1-1.204-.795 3.578 3.578 0 0 1-.772-1.252 4.7 4.7 0 0 1-.274-1.65c0-.606.091-1.153.274-1.643.182-.49.44-.905.772-1.245.333-.34.734-.602 1.204-.788.47-.185.992-.277 1.567-.277zm0 6.502c.64 0 1.114-.214 1.422-.645.307-.43.46-1.06.46-1.89 0-.83-.153-1.462-.46-1.897-.308-.435-.782-.653-1.422-.653-.65 0-1.13.22-1.443.657-.313.437-.47 1.068-.47 1.894 0 .825.157 1.453.47 1.886.312.432.793.648 1.443.648zm7.08-5.437c.156-.155.32-.299.492-.431a3.068 3.068 0 0 1 1.166-.555 3.1 3.1 0 0 1 .72-.079c.42 0 .793.071 1.118.214.325.142.596.342.814.6.217.257.382.565.495.922.112.358.168.751.168 1.181V59h-1.852v-4.898c0-.47-.108-.833-.323-1.09-.215-.258-.542-.387-.982-.387-.32 0-.62.072-.9.218-.28.145-.545.342-.795.592V59h-1.853v-7.695h1.133c.24 0 .397.112.472.337l.128.608zm18.385 4.193c.11 0 .207.042.292.127l.795.862c-.44.546-.981.963-1.624 1.253-.642.29-1.413.435-2.313.435-.805 0-1.53-.137-2.172-.412a4.786 4.786 0 0 1-1.646-1.148 5.024 5.024 0 0 1-1.046-1.755 6.588 6.588 0 0 1-.364-2.227c0-.816.13-1.562.39-2.24a5.146 5.146 0 0 1 1.099-1.75 4.973 4.973 0 0 1 1.691-1.144c.655-.273 1.38-.409 2.175-.409.79 0 1.491.13 2.104.39.612.26 1.134.6 1.564 1.02l-.675.938a.612.612 0 0 1-.154.157.436.436 0 0 1-.259.068.495.495 0 0 1-.232-.064 3.303 3.303 0 0 1-.263-.158 9.49 9.49 0 0 0-.33-.206 2.716 2.716 0 0 0-.435-.206 3.55 3.55 0 0 0-.574-.158 3.964 3.964 0 0 0-.753-.064c-.485 0-.93.087-1.332.26a2.893 2.893 0 0 0-1.038.75c-.29.327-.515.727-.675 1.2-.16.472-.24 1.01-.24 1.615 0 .61.086 1.153.258 1.628.173.475.407.875.702 1.2.295.325.642.574 1.042.746.4.173.83.259 1.29.259.275 0 .524-.015.746-.045.223-.03.428-.077.615-.143a2.73 2.73 0 0 0 .533-.25c.167-.103.334-.23.499-.38a.711.711 0 0 1 .157-.108.38.38 0 0 1 .173-.041zm7.118-2.175c0-.24-.034-.467-.101-.68a1.613 1.613 0 0 0-.304-.558 1.413 1.413 0 0 0-.514-.379 1.763 1.763 0 0 0-.724-.139c-.535 0-.956.153-1.263.458-.308.305-.504.737-.59 1.297h3.496zm-3.533 1.117c.03.395.1.736.21 1.024.11.287.255.525.435.712.18.188.394.328.642.42.247.093.52.139.82.139.3 0 .56-.035.777-.105a3.64 3.64 0 0 0 .57-.233c.163-.085.305-.162.428-.232a.717.717 0 0 1 .356-.105c.155 0 .27.057.345.172l.532.675c-.205.24-.435.442-.69.604a3.87 3.87 0 0 1-.798.39c-.278.098-.56.166-.848.207-.287.04-.566.06-.836.06a4.11 4.11 0 0 1-1.493-.267c-.46-.177-.86-.44-1.2-.787a3.695 3.695 0 0 1-.802-1.29c-.195-.513-.293-1.106-.293-1.782 0-.525.085-1.018.255-1.48.17-.463.414-.866.732-1.208a3.443 3.443 0 0 1 1.162-.814c.458-.2.974-.3 1.549-.3.485 0 .932.077 1.342.232.41.156.763.382 1.058.68.295.297.526.662.694 1.094.167.433.25.926.25 1.481 0 .28-.03.47-.09.567-.06.097-.174.146-.344.146h-4.763zm8.453-3.135c.155-.155.32-.299.492-.431a3.068 3.068 0 0 1 1.166-.555 3.1 3.1 0 0 1 .72-.079c.42 0 .792.071 1.117.214.325.142.597.342.814.6.218.257.383.565.495.922.113.358.169.751.169 1.181V59h-1.853v-4.898c0-.47-.107-.833-.322-1.09-.215-.258-.543-.387-.983-.387-.32 0-.62.072-.9.218-.28.145-.545.342-.795.592V59h-1.852v-7.695h1.132c.24 0 .398.112.473.337l.127.608zm9.323 6.87c-.67 0-1.183-.189-1.54-.566-.358-.378-.537-.899-.537-1.564v-4.297h-.788a.361.361 0 0 1-.255-.098c-.07-.065-.105-.162-.105-.292v-.735l1.238-.203.39-2.1a.412.412 0 0 1 .142-.233.424.424 0 0 1 .27-.082h.96v2.422h2.055v1.32h-2.055v4.17c0 .24.06.428.177.563a.608.608 0 0 0 .483.203.872.872 0 0 0 .29-.042 1.59 1.59 0 0 0 .202-.086c.057-.03.108-.059.153-.086a.257.257 0 0 1 .135-.041c.055 0 .1.013.135.04a.626.626 0 0 1 .113.125l.555.9c-.27.225-.58.394-.93.51-.35.115-.713.172-1.088.172zm8.049-4.852c0-.24-.034-.467-.102-.68a1.613 1.613 0 0 0-.303-.558 1.413 1.413 0 0 0-.514-.379 1.763 1.763 0 0 0-.724-.139c-.535 0-.956.153-1.264.458-.307.305-.503.737-.588 1.297h3.495zm-3.533 1.117c.03.395.1.736.21 1.024.11.287.255.525.435.712.18.188.394.328.641.42.248.093.522.139.822.139.3 0 .558-.035.776-.105a3.64 3.64 0 0 0 .57-.233c.162-.085.305-.162.427-.232a.717.717 0 0 1 .357-.105c.155 0 .27.057.345.172l.532.675c-.205.24-.435.442-.69.604a3.87 3.87 0 0 1-.799.39c-.277.098-.56.166-.847.207-.288.04-.566.06-.836.06a4.11 4.11 0 0 1-1.493-.267c-.46-.177-.86-.44-1.2-.787a3.695 3.695 0 0 1-.802-1.29c-.195-.513-.293-1.106-.293-1.782 0-.525.085-1.018.255-1.48.17-.463.414-.866.731-1.208a3.443 3.443 0 0 1 1.163-.814c.457-.2.974-.3 1.549-.3.485 0 .932.077 1.342.232.41.156.763.382 1.058.68.295.297.526.662.693 1.094.168.433.252.926.252 1.481 0 .28-.03.47-.09.567-.06.097-.175.146-.345.146h-4.763zm8.468-2.745c.24-.46.525-.821.855-1.084.33-.262.72-.393 1.17-.393.355 0 .64.077.855.232l-.12 1.387a.358.358 0 0 1-.109.192.3.3 0 0 1-.19.056c-.076 0-.187-.012-.335-.038a2.579 2.579 0 0 0-.43-.037c-.206 0-.388.03-.548.09-.16.06-.304.146-.432.259-.127.112-.24.248-.337.408-.098.16-.189.343-.274.548V59h-1.852v-7.695h1.087c.19 0 .323.034.398.101.075.068.125.189.15.364l.112.87zm8.656.165a.494.494 0 0 1-.158.169.408.408 0 0 1-.21.049.662.662 0 0 1-.288-.076 19.71 19.71 0 0 0-.357-.168 3.263 3.263 0 0 0-.461-.169 2.21 2.21 0 0 0-.611-.075c-.365 0-.651.077-.859.233a.724.724 0 0 0-.311.607.58.58 0 0 0 .161.416c.108.113.25.211.428.297.177.085.378.16.603.228.225.068.454.141.687.221.232.08.46.172.686.274.225.103.426.233.604.39.177.158.32.346.427.566.108.22.161.485.161.795 0 .37-.066.712-.198 1.024a2.212 2.212 0 0 1-.59.81c-.26.228-.58.405-.963.533a4.185 4.185 0 0 1-1.324.191 4.19 4.19 0 0 1-.776-.071 4.582 4.582 0 0 1-.727-.199 4.026 4.026 0 0 1-.645-.3 3.13 3.13 0 0 1-.522-.375l.428-.705a.605.605 0 0 1 .195-.195.547.547 0 0 1 .285-.067.6.6 0 0 1 .326.097c.103.065.221.135.356.21.135.075.294.145.477.21.182.065.413.097.693.097a1.8 1.8 0 0 0 .567-.078c.157-.053.287-.121.39-.206a.774.774 0 0 0 .225-.297.888.888 0 0 0 .07-.349.622.622 0 0 0-.16-.442 1.411 1.411 0 0 0-.428-.3 4.129 4.129 0 0 0-.607-.229c-.228-.067-.46-.141-.698-.221a6.452 6.452 0 0 1-.697-.281 2.377 2.377 0 0 1-.608-.409 1.85 1.85 0 0 1-.427-.607 2.12 2.12 0 0 1-.162-.87c0-.316.063-.615.188-.9.125-.286.309-.534.551-.747.243-.212.545-.382.908-.51a3.78 3.78 0 0 1 1.256-.191c.53 0 1.012.087 1.447.262a3.27 3.27 0 0 1 1.088.69l-.42.668zm9.383.51c.38 0 .712-.047.994-.142.283-.096.515-.227.698-.394.182-.168.318-.366.408-.597.09-.23.135-.482.135-.757 0-.55-.18-.972-.543-1.267-.363-.296-.917-.443-1.662-.443h-1.29v3.6h1.26zm5.19 5.685h-1.822c-.345 0-.595-.135-.75-.405l-2.28-3.472a.8.8 0 0 0-.281-.278c-.103-.055-.254-.082-.454-.082h-.863V59h-2.017V48.155h3.307c.735 0 1.367.076 1.894.229.528.152.96.366 1.298.641.337.275.586.604.746.986.16.383.24.804.24 1.264 0 .365-.054.71-.161 1.035a2.995 2.995 0 0 1-1.215 1.582c-.298.2-.637.358-1.017.473a1.892 1.892 0 0 1 .66.63L231.607 59zm5.476-4.733c0-.24-.034-.466-.101-.678a1.613 1.613 0 0 0-.304-.559 1.413 1.413 0 0 0-.514-.379 1.763 1.763 0 0 0-.723-.139c-.535 0-.957.153-1.264.458-.308.305-.504.737-.589 1.297h3.495zm-3.532 1.118c.03.395.1.736.21 1.024.11.287.255.525.435.712.18.188.393.328.64.42.248.093.522.139.822.139.3 0 .559-.035.776-.105a3.64 3.64 0 0 0 .57-.233c.163-.085.305-.162.428-.232a.717.717 0 0 1 .356-.105c.155 0 .27.057.345.172l.533.675c-.205.24-.435.442-.69.604a3.87 3.87 0 0 1-.8.39c-.277.098-.56.166-.847.207-.287.04-.566.06-.836.06a4.11 4.11 0 0 1-1.492-.267c-.46-.177-.86-.44-1.2-.787a3.695 3.695 0 0 1-.803-1.29c-.195-.513-.292-1.106-.292-1.782 0-.525.085-1.018.255-1.48.17-.463.413-.866.73-1.208a3.443 3.443 0 0 1 1.163-.814c.458-.2.974-.3 1.55-.3.484 0 .932.077 1.342.232.41.156.762.382 1.057.68.295.297.526.662.694 1.094.167.433.251.926.251 1.481 0 .28-.03.47-.09.567-.06.097-.175.146-.345.146h-4.762zm11.415-2.58a.494.494 0 0 1-.157.169.408.408 0 0 1-.21.049.662.662 0 0 1-.29-.076c-.102-.05-.22-.106-.355-.168a3.263 3.263 0 0 0-.462-.169 2.21 2.21 0 0 0-.61-.075c-.366 0-.652.077-.86.233a.724.724 0 0 0-.31.607.58.58 0 0 0 .16.416c.108.113.25.211.428.297.177.085.379.16.604.228.225.068.453.141.686.221.232.08.461.172.686.274.225.103.426.233.604.39.177.158.32.346.427.566.108.22.162.485.162.795 0 .37-.067.712-.2 1.024a2.212 2.212 0 0 1-.588.81c-.26.228-.581.405-.964.533a4.185 4.185 0 0 1-1.323.191 4.19 4.19 0 0 1-.777-.071 4.582 4.582 0 0 1-.727-.199 4.026 4.026 0 0 1-.645-.3 3.13 3.13 0 0 1-.521-.375l.427-.705a.605.605 0 0 1 .195-.195.547.547 0 0 1 .285-.067.6.6 0 0 1 .326.097 7.2 7.2 0 0 0 .357.21c.135.075.293.145.476.21.182.065.414.097.694.097a1.8 1.8 0 0 0 .566-.078c.157-.053.287-.121.39-.206a.774.774 0 0 0 .225-.297.888.888 0 0 0 .071-.349.622.622 0 0 0-.161-.442 1.411 1.411 0 0 0-.428-.3 4.129 4.129 0 0 0-.607-.229c-.228-.067-.46-.141-.698-.221a6.452 6.452 0 0 1-.697-.281 2.377 2.377 0 0 1-.608-.409 1.85 1.85 0 0 1-.427-.607 2.12 2.12 0 0 1-.161-.87c0-.316.062-.615.187-.9.125-.286.309-.534.551-.747.243-.212.545-.382.908-.51a3.78 3.78 0 0 1 1.256-.191c.53 0 1.013.087 1.448.262a3.27 3.27 0 0 1 1.087.69l-.42.668zm5.438-1.62c.57 0 1.089.092 1.557.277a3.41 3.41 0 0 1 1.2.788c.332.34.588.755.768 1.245.18.49.27 1.037.27 1.643 0 .61-.09 1.16-.27 1.65-.18.49-.436.907-.768 1.252a3.36 3.36 0 0 1-1.2.795 4.196 4.196 0 0 1-1.557.277 4.246 4.246 0 0 1-1.567-.277 3.353 3.353 0 0 1-1.204-.795 3.579 3.579 0 0 1-.772-1.252 4.7 4.7 0 0 1-.274-1.65c0-.606.091-1.153.274-1.643.182-.49.44-.905.772-1.245.333-.34.734-.602 1.204-.788.47-.185.992-.277 1.567-.277zm0 6.502c.64 0 1.114-.214 1.422-.645.307-.43.46-1.06.46-1.89 0-.83-.153-1.462-.46-1.897-.308-.435-.782-.653-1.422-.653-.65 0-1.131.22-1.443.657-.313.437-.47 1.068-.47 1.894 0 .825.157 1.453.47 1.886.312.432.793.648 1.443.648zm11.978-6.382V59h-1.132c-.245 0-.4-.112-.465-.337l-.128-.615c-.315.32-.662.578-1.042.776-.38.197-.828.296-1.343.296-.42 0-.79-.071-1.113-.214a2.23 2.23 0 0 1-.814-.603 2.643 2.643 0 0 1-.499-.927 3.92 3.92 0 0 1-.169-1.181v-4.89h1.853v4.89c0 .47.109.834.326 1.091.218.258.544.386.979.386.32 0 .62-.07.9-.213s.545-.339.795-.589v-5.565h1.852zm3.713 1.335c.24-.46.525-.821.855-1.084.33-.262.72-.393 1.17-.393.355 0 .64.077.855.232l-.12 1.387a.358.358 0 0 1-.108.192.3.3 0 0 1-.192.056c-.075 0-.186-.012-.333-.038a2.579 2.579 0 0 0-.432-.037c-.205 0-.387.03-.547.09-.16.06-.304.146-.431.259-.128.112-.24.248-.338.408-.097.16-.189.343-.274.548V59h-1.852v-7.695h1.087c.19 0 .323.034.398.101.075.068.125.189.15.364l.112.87zm9.279.292a.923.923 0 0 1-.162.165.372.372 0 0 1-.228.06.51.51 0 0 1-.278-.086 8.927 8.927 0 0 0-.322-.195 2.05 2.05 0 0 0-1.088-.281c-.325 0-.61.059-.855.176a1.62 1.62 0 0 0-.611.507c-.163.22-.284.486-.364.798-.08.313-.12.666-.12 1.062 0 .41.044.774.131 1.095.088.32.214.588.38.806.164.217.364.382.6.495.234.112.5.169.794.169.295 0 .534-.037.716-.11a2.26 2.26 0 0 0 .462-.24c.125-.087.233-.167.326-.24a.492.492 0 0 1 .311-.108c.15 0 .263.057.338.172l.532.675a3.35 3.35 0 0 1-.667.604c-.24.163-.49.293-.747.39a3.795 3.795 0 0 1-.795.207c-.272.04-.543.06-.813.06-.475 0-.923-.09-1.343-.267a3.171 3.171 0 0 1-1.102-.776 3.707 3.707 0 0 1-.747-1.249c-.182-.492-.273-1.053-.273-1.683 0-.566.08-1.09.243-1.572.163-.482.402-.9.717-1.252a3.284 3.284 0 0 1 1.17-.829c.465-.2 1-.3 1.605-.3.575 0 1.078.092 1.51.277.433.186.822.45 1.167.795l-.487.675zm6.675 1.335c0-.24-.034-.466-.101-.678a1.613 1.613 0 0 0-.304-.559 1.413 1.413 0 0 0-.514-.379 1.763 1.763 0 0 0-.723-.139c-.535 0-.957.153-1.264.458-.308.305-.504.737-.589 1.297h3.495zm-3.532 1.118c.03.395.1.736.21 1.024.11.287.255.525.435.712.18.188.393.328.64.42.248.093.522.139.822.139.3 0 .559-.035.776-.105a3.64 3.64 0 0 0 .57-.233c.163-.085.305-.162.428-.232a.717.717 0 0 1 .356-.105c.155 0 .27.057.345.172l.533.675c-.205.24-.435.442-.69.604a3.87 3.87 0 0 1-.8.39c-.277.098-.56.166-.847.207-.287.04-.566.06-.836.06a4.11 4.11 0 0 1-1.492-.267c-.46-.177-.86-.44-1.2-.787a3.695 3.695 0 0 1-.803-1.29c-.195-.513-.292-1.106-.292-1.782 0-.525.085-1.018.255-1.48.17-.463.413-.866.73-1.208a3.443 3.443 0 0 1 1.163-.814c.458-.2.974-.3 1.55-.3.484 0 .932.077 1.342.232.41.156.762.382 1.057.68.295.297.526.662.694 1.094.167.433.251.926.251 1.481 0 .28-.03.47-.09.567-.06.097-.175.146-.345.146h-4.762z" fill="#FFF"/>
  </g>
</svg>
