<svg height="55" width="220" xmlns="http://www.w3.org/2000/svg">
  <g fill="none" fill-rule="evenodd">
    <g fill-rule="nonzero">
      <path d="M155 40l5 5H10C4.477 45 0 40.523 0 35V15a10 10 0 0 1 5.884-9.116A9.964 9.964 0 0 0 5 10v20c0 5.523 4.477 10 10 10z" fill="#000" fill-opacity=".2"/>
      <path d="M15 0h130c5.523 0 10 4.477 10 10v20l10 10H15C9.477 40 5 35.523 5 30V10C5 4.477 9.477 0 15 0zm3.833 9c-.177 0-.237.15-.237.24l-3.93 20.52c0 .15.09.24.237.24h2.66c.147 0 .236-.09.236-.24l.62-3.69h3.162l.62 3.69c0 .15.118.24.237.24h2.659c.148 0 .236-.09.236-.24L21.522 9.24c0-.09-.06-.24-.237-.24zM20 16.667l.844 5.345a.854.854 0 1 1-1.688 0zM37.097 30c.148 0 .236-.06.236-.24v-2.55c0-.12-.088-.24-.236-.24h-5.636V9.24c0-.15-.088-.24-.236-.24H28.57c-.147 0-.236.09-.236.24v20.52c0 .09.06.24.236.24h8.528zm6.041-16.447c0-.566.148-1.788 1.362-1.788 1.066 0 1.362 1.013 1.362 1.788v.864c0 .15.118.209.237.209h2.664c.148 0 .237-.06.237-.209v-1.132c0-2.682-1.332-4.618-4.5-4.618-2.99 0-4.5 2.115-4.5 4.618v12.097C40 27.885 41.51 30 44.5 30c2.96 0 4.5-1.937 4.5-4.618v-1.4c0-.15-.089-.21-.237-.21H46.1c-.119 0-.237.06-.237.21v1.132c0 .774-.296 1.787-1.362 1.787-1.214 0-1.362-1.221-1.362-1.787v-11.56zm18.195 11.829V13.285c0-2.682-1.332-4.618-4.5-4.618-2.99 0-4.5 2.115-4.5 4.618v12.097c0 2.503 1.421 4.618 4.5 4.618 3.08 0 4.5-2.115 4.5-4.618zm-6-11.962c0-.565.145-1.753 1.334-1.753 1.043 0 1.333.98 1.333 1.753v11.827c0 .772-.145 1.753-1.333 1.753-1.102 0-1.334-.98-1.334-1.753zM74.431 30c.147 0 .236-.06.236-.24V9.24c0-.15-.089-.24-.236-.24h-2.656c-.148 0-.236.09-.236.24v8.58h-2.744V9.24c0-.15-.089-.24-.237-.24h-2.655c-.148 0-.236.09-.236.24v20.52c0 .09.059.24.236.24h2.655c.148 0 .237-.06.237-.24v-8.91h2.744v8.91c0 .09.059.24.236.24zM88 25.382V13.285c0-2.682-1.332-4.618-4.5-4.618-2.99 0-4.5 2.115-4.5 4.618v12.097C79 27.885 80.421 30 83.5 30s4.5-2.115 4.5-4.618zM82 13.42c0-.565.145-1.753 1.333-1.753 1.044 0 1.334.98 1.334 1.753v11.827c0 .772-.145 1.753-1.334 1.753C82.232 27 82 26.02 82 25.247zM100.764 30c.147 0 .236-.06.236-.24v-2.55c0-.12-.089-.24-.236-.24h-5.636V9.24c0-.15-.089-.24-.236-.24h-2.656c-.147 0-.236.09-.236.24v20.52c0 .09.059.24.236.24zm5.676-.333c.142 0 .227-.057.227-.227v-2.547c0-.141-.085-.226-.227-.226h-2.547c-.141 0-.226.085-.226.226v2.547c0 .085.056.227.226.227zm12.227-4.285V13.285c0-2.682-1.333-4.618-4.5-4.618-2.99 0-4.5 2.115-4.5 4.618v12.097c0 2.503 1.42 4.618 4.5 4.618 3.079 0 4.5-2.115 4.5-4.618zM113 13.42c0-.565.145-1.753 1.333-1.753 1.044 0 1.334.98 1.334 1.753v11.827c0 .772-.145 1.753-1.334 1.753-1.101 0-1.333-.98-1.333-1.753zM131.587 30c.147 0 .265-.06.236-.24l-2.567-9.24c1.977-.75 2.744-2.61 2.744-4.59V13.8c0-3.12-1.18-4.8-4.869-4.8h-3.895c-.147 0-.236.09-.236.24v20.52c0 .09.059.24.236.24h2.656c.147 0 .236-.06.236-.24v-8.91l2.272 8.91c0 .09.059.24.236.24h2.95zm-4.279-18C128.8 12 129 13.075 129 14.034v1.715c0 .755-.115 1.918-1.663 1.918h-1.004V12zm11.497 13.114v-11.56c0-.567.148-1.789 1.362-1.789 1.065 0 1.362 1.013 1.362 1.788v.864c0 .15.118.209.236.209h2.665c.148 0 .237-.06.237-.209v-1.132c0-2.682-1.333-4.618-4.5-4.618-2.99 0-4.5 2.115-4.5 4.618v12.097c0 2.503 1.42 4.618 4.5 4.618 3.079 0 4.5-2.115 4.5-4.618v-7.449c0-.149-.09-.238-.237-.238h-3.967a.234.234 0 0 0-.237.238v2.503c0 .119.06.238.237.238h1.066v4.44c0 .774-.149 1.787-1.362 1.787-1.125 0-1.362-1.013-1.362-1.787z" fill="#fff"/>
      <path d="M18.833 9h2.452c.178 0 .237.15.237.24l3.811 20.52c0 .15-.088.24-.236.24h-2.66a.235.235 0 0 1-.236-.24l-.62-3.69h-3.162l-.62 3.69c0 .15-.089.24-.237.24h-2.659c-.148 0-.236-.09-.236-.24l3.93-20.52c0-.09.059-.24.236-.24zM20 16.667l-.844 5.345a.854.854 0 1 0 1.688 0zM37.097 30c.148 0 .236-.06.236-.24v-2.55c0-.12-.088-.24-.236-.24h-5.636V9.24c0-.15-.088-.24-.236-.24H28.57c-.147 0-.236.09-.236.24v20.52c0 .09.06.24.236.24h8.528zm6.041-16.447c0-.566.148-1.788 1.362-1.788 1.066 0 1.362 1.013 1.362 1.788v.864c0 .15.118.209.237.209h2.664c.148 0 .237-.06.237-.209v-1.132c0-2.682-1.332-4.618-4.5-4.618-2.99 0-4.5 2.115-4.5 4.618v12.097C40 27.885 41.51 30 44.5 30c2.96 0 4.5-1.937 4.5-4.618v-1.4c0-.15-.089-.21-.237-.21H46.1c-.119 0-.237.06-.237.21v1.132c0 .774-.296 1.787-1.362 1.787-1.214 0-1.362-1.221-1.362-1.787v-11.56zm18.195 11.829c0 2.503-1.42 4.618-4.5 4.618-3.079 0-4.5-2.115-4.5-4.618V13.285c0-2.503 1.51-4.618 4.5-4.618 3.168 0 4.5 1.936 4.5 4.618zm-6-11.962v11.827c0 .772.232 1.753 1.334 1.753C57.855 27 58 26.02 58 25.247V13.42c0-.773-.29-1.753-1.333-1.753-1.189 0-1.334 1.188-1.334 1.753zM74.431 30c.147 0 .236-.06.236-.24V9.24c0-.15-.089-.24-.236-.24h-2.656c-.148 0-.236.09-.236.24v8.58h-2.744V9.24c0-.15-.089-.24-.237-.24h-2.655c-.148 0-.236.09-.236.24v20.52c0 .09.059.24.236.24h2.655c.148 0 .237-.06.237-.24v-8.91h2.744v8.91c0 .09.059.24.236.24zM88 25.382C88 27.885 86.579 30 83.5 30S79 27.885 79 25.382V13.285c0-2.503 1.51-4.618 4.5-4.618 3.168 0 4.5 1.936 4.5 4.618zM82 13.42v11.827c0 .772.232 1.753 1.333 1.753 1.189 0 1.334-.98 1.334-1.753V13.42c0-.773-.29-1.753-1.334-1.753-1.188 0-1.333 1.188-1.333 1.753zM100.764 30c.147 0 .236-.06.236-.24v-2.55c0-.12-.089-.24-.236-.24h-5.636V9.24c0-.15-.089-.24-.236-.24h-2.656c-.147 0-.236.09-.236.24v20.52c0 .09.059.24.236.24zm5.676-.333c.142 0 .227-.057.227-.227v-2.547c0-.141-.085-.226-.227-.226h-2.547c-.141 0-.226.085-.226.226v2.547c0 .085.056.227.226.227zm12.227-4.285c0 2.503-1.421 4.618-4.5 4.618-3.08 0-4.5-2.115-4.5-4.618V13.285c0-2.503 1.51-4.618 4.5-4.618 3.167 0 4.5 1.936 4.5 4.618zM113 13.42v11.827c0 .772.232 1.753 1.333 1.753 1.189 0 1.334-.98 1.334-1.753V13.42c0-.773-.29-1.753-1.334-1.753-1.188 0-1.333 1.188-1.333 1.753zM131.587 30h-2.95c-.178 0-.237-.15-.237-.24l-2.272-8.91v8.91c0 .18-.089.24-.236.24h-2.656c-.177 0-.236-.15-.236-.24V9.24c0-.15.089-.24.236-.24h3.895C130.82 9 132 10.68 132 13.8v2.13c0 1.98-.767 3.84-2.744 4.59l2.567 9.24c.03.18-.089.24-.236.24zm-4.279-18h-.975v5.667h1.004c1.548 0 1.663-1.163 1.663-1.918v-1.715c0-.959-.2-2.034-1.692-2.034zm11.497 13.114v-11.56c0-.567.148-1.789 1.362-1.789 1.065 0 1.362 1.013 1.362 1.788v.864c0 .15.118.209.236.209h2.665c.148 0 .237-.06.237-.209v-1.132c0-2.682-1.333-4.618-4.5-4.618-2.99 0-4.5 2.115-4.5 4.618v12.097c0 2.503 1.42 4.618 4.5 4.618 3.079 0 4.5-2.115 4.5-4.618v-7.449c0-.149-.09-.238-.237-.238h-3.967a.234.234 0 0 0-.237.238v2.503c0 .119.06.238.237.238h1.066v4.44c0 .774-.149 1.787-1.362 1.787-1.125 0-1.362-1.013-1.362-1.787z" fill="#dd7516"/>
      <g fill="#000" fill-opacity=".15">
        <path d="M18.833 9h2.452c.178 0 .237.15.237.24l3.811 20.52c0 .15-.088.24-.236.24h-2.66a.235.235 0 0 1-.236-.24l-.62-3.69h-3.162l-.62 3.69c0 .15-.089.24-.237.24h-2.659c-.148 0-.236-.09-.236-.24l3.93-20.52c0-.09.059-.24.236-.24zM20 16.667l-.844 5.345a.854.854 0 1 0 1.688 0zM37.097 30c.148 0 .236-.06.236-.24v-2.55c0-.12-.088-.24-.236-.24h-5.636V9.24c0-.15-.088-.24-.236-.24H28.57c-.147 0-.236.09-.236.24v20.52c0 .09.06.24.236.24h8.528zm6.041-16.447c0-.566.148-1.788 1.362-1.788 1.066 0 1.362 1.013 1.362 1.788v.864c0 .15.118.209.237.209h2.664c.148 0 .237-.06.237-.209v-1.132c0-2.682-1.332-4.618-4.5-4.618-2.99 0-4.5 2.115-4.5 4.618v12.097C40 27.885 41.51 30 44.5 30c2.96 0 4.5-1.937 4.5-4.618v-1.4c0-.15-.089-.21-.237-.21H46.1c-.119 0-.237.06-.237.21v1.132c0 .774-.296 1.787-1.362 1.787-1.214 0-1.362-1.221-1.362-1.787v-11.56zm18.195 11.829c0 2.503-1.42 4.618-4.5 4.618-3.079 0-4.5-2.115-4.5-4.618V13.285c0-2.503 1.51-4.618 4.5-4.618 3.168 0 4.5 1.936 4.5 4.618zm-6-11.962v11.827c0 .772.232 1.753 1.334 1.753C57.855 27 58 26.02 58 25.247V13.42c0-.773-.29-1.753-1.333-1.753-1.189 0-1.334 1.188-1.334 1.753zM74.431 30c.147 0 .236-.06.236-.24V9.24c0-.15-.089-.24-.236-.24h-2.656c-.148 0-.236.09-.236.24v8.58h-2.744V9.24c0-.15-.089-.24-.237-.24h-2.655c-.148 0-.236.09-.236.24v20.52c0 .09.059.24.236.24h2.655c.148 0 .237-.06.237-.24v-8.91h2.744v8.91c0 .09.059.24.236.24zM88 25.382C88 27.885 86.579 30 83.5 30S79 27.885 79 25.382V13.285c0-2.503 1.51-4.618 4.5-4.618 3.168 0 4.5 1.936 4.5 4.618zM82 13.42v11.827c0 .772.232 1.753 1.333 1.753 1.189 0 1.334-.98 1.334-1.753V13.42c0-.773-.29-1.753-1.334-1.753-1.188 0-1.333 1.188-1.333 1.753zM100.764 30c.147 0 .236-.06.236-.24v-2.55c0-.12-.089-.24-.236-.24h-5.636V9.24c0-.15-.089-.24-.236-.24h-2.656c-.147 0-.236.09-.236.24v20.52c0 .09.059.24.236.24zm5.676-.333c.142 0 .227-.057.227-.227v-2.547c0-.141-.085-.226-.227-.226h-2.547c-.141 0-.226.085-.226.226v2.547c0 .085.056.227.226.227zm12.227-4.285c0 2.503-1.421 4.618-4.5 4.618-3.08 0-4.5-2.115-4.5-4.618V13.285c0-2.503 1.51-4.618 4.5-4.618 3.167 0 4.5 1.936 4.5 4.618zM113 13.42v11.827c0 .772.232 1.753 1.333 1.753 1.189 0 1.334-.98 1.334-1.753V13.42c0-.773-.29-1.753-1.334-1.753-1.188 0-1.333 1.188-1.333 1.753zM131.587 30h-2.95c-.178 0-.237-.15-.237-.24l-2.272-8.91v8.91c0 .18-.089.24-.236.24h-2.656c-.177 0-.236-.15-.236-.24V9.24c0-.15.089-.24.236-.24h3.895C130.82 9 132 10.68 132 13.8v2.13c0 1.98-.767 3.84-2.744 4.59l2.567 9.24c.03.18-.089.24-.236.24zm-4.279-18h-.975v5.667h1.004c1.548 0 1.663-1.163 1.663-1.918v-1.715c0-.959-.2-2.034-1.692-2.034zm11.497 13.114v-11.56c0-.567.148-1.789 1.362-1.789 1.065 0 1.362 1.013 1.362 1.788v.864c0 .15.118.209.236.209h2.665c.148 0 .237-.06.237-.209v-1.132c0-2.682-1.333-4.618-4.5-4.618-2.99 0-4.5 2.115-4.5 4.618v12.097c0 2.503 1.42 4.618 4.5 4.618 3.079 0 4.5-2.115 4.5-4.618v-7.449c0-.149-.09-.238-.237-.238h-3.967a.234.234 0 0 0-.237.238v2.503c0 .119.06.238.237.238h1.066v4.44c0 .774-.149 1.787-1.362 1.787-1.125 0-1.362-1.013-1.362-1.787z"/>
        <path d="M18.833 9h2.452c.178 0 .237.15.237.24l3.811 20.52c0 .15-.088.24-.236.24h-2.66a.235.235 0 0 1-.236-.24l-.62-3.69h-3.162l-.62 3.69c0 .15-.089.24-.237.24h-2.659c-.148 0-.236-.09-.236-.24l3.93-20.52c0-.09.059-.24.236-.24zM20 16.667l-.844 5.345a.854.854 0 1 0 1.688 0zM37.097 30c.148 0 .236-.06.236-.24v-2.55c0-.12-.088-.24-.236-.24h-5.636V9.24c0-.15-.088-.24-.236-.24H28.57c-.147 0-.236.09-.236.24v20.52c0 .09.06.24.236.24h8.528zm6.041-16.447c0-.566.148-1.788 1.362-1.788 1.066 0 1.362 1.013 1.362 1.788v.864c0 .15.118.209.237.209h2.664c.148 0 .237-.06.237-.209v-1.132c0-2.682-1.332-4.618-4.5-4.618-2.99 0-4.5 2.115-4.5 4.618v12.097C40 27.885 41.51 30 44.5 30c2.96 0 4.5-1.937 4.5-4.618v-1.4c0-.15-.089-.21-.237-.21H46.1c-.119 0-.237.06-.237.21v1.132c0 .774-.296 1.787-1.362 1.787-1.214 0-1.362-1.221-1.362-1.787v-11.56zm18.195 11.829c0 2.503-1.42 4.618-4.5 4.618-3.079 0-4.5-2.115-4.5-4.618V13.285c0-2.503 1.51-4.618 4.5-4.618 3.168 0 4.5 1.936 4.5 4.618zm-6-11.962v11.827c0 .772.232 1.753 1.334 1.753C57.855 27 58 26.02 58 25.247V13.42c0-.773-.29-1.753-1.333-1.753-1.189 0-1.334 1.188-1.334 1.753zM74.431 30c.147 0 .236-.06.236-.24V9.24c0-.15-.089-.24-.236-.24h-2.656c-.148 0-.236.09-.236.24v8.58h-2.744V9.24c0-.15-.089-.24-.237-.24h-2.655c-.148 0-.236.09-.236.24v20.52c0 .09.059.24.236.24h2.655c.148 0 .237-.06.237-.24v-8.91h2.744v8.91c0 .09.059.24.236.24zM88 25.382C88 27.885 86.579 30 83.5 30S79 27.885 79 25.382V13.285c0-2.503 1.51-4.618 4.5-4.618 3.168 0 4.5 1.936 4.5 4.618zM82 13.42v11.827c0 .772.232 1.753 1.333 1.753 1.189 0 1.334-.98 1.334-1.753V13.42c0-.773-.29-1.753-1.334-1.753-1.188 0-1.333 1.188-1.333 1.753zM100.764 30c.147 0 .236-.06.236-.24v-2.55c0-.12-.089-.24-.236-.24h-5.636V9.24c0-.15-.089-.24-.236-.24h-2.656c-.147 0-.236.09-.236.24v20.52c0 .09.059.24.236.24zm5.676-.333c.142 0 .227-.057.227-.227v-2.547c0-.141-.085-.226-.227-.226h-2.547c-.141 0-.226.085-.226.226v2.547c0 .085.056.227.226.227zm12.227-4.285c0 2.503-1.421 4.618-4.5 4.618-3.08 0-4.5-2.115-4.5-4.618V13.285c0-2.503 1.51-4.618 4.5-4.618 3.167 0 4.5 1.936 4.5 4.618zM113 13.42v11.827c0 .772.232 1.753 1.333 1.753 1.189 0 1.334-.98 1.334-1.753V13.42c0-.773-.29-1.753-1.334-1.753-1.188 0-1.333 1.188-1.333 1.753zM131.587 30h-2.95c-.178 0-.237-.15-.237-.24l-2.272-8.91v8.91c0 .18-.089.24-.236.24h-2.656c-.177 0-.236-.15-.236-.24V9.24c0-.15.089-.24.236-.24h3.895C130.82 9 132 10.68 132 13.8v2.13c0 1.98-.767 3.84-2.744 4.59l2.567 9.24c.03.18-.089.24-.236.24zm-4.279-18h-.975v5.667h1.004c1.548 0 1.663-1.163 1.663-1.918v-1.715c0-.959-.2-2.034-1.692-2.034zm11.497 13.114v-11.56c0-.567.148-1.789 1.362-1.789 1.065 0 1.362 1.013 1.362 1.788v.864c0 .15.118.209.236.209h2.665c.148 0 .237-.06.237-.209v-1.132c0-2.682-1.333-4.618-4.5-4.618-2.99 0-4.5 2.115-4.5 4.618v12.097c0 2.503 1.42 4.618 4.5 4.618 3.079 0 4.5-2.115 4.5-4.618v-7.449c0-.149-.09-.238-.237-.238h-3.967a.234.234 0 0 0-.237.238v2.503c0 .119.06.238.237.238h1.066v4.44c0 .774-.149 1.787-1.362 1.787-1.125 0-1.362-1.013-1.362-1.787z"/>
      </g>
    </g>
    <path d="M218.365 52.906h1.582c-.189 1.246-1.322 2.082-2.886 2.082-1.947 0-3.116-1.252-3.116-3.287 0-2.029 1.18-3.346 3.051-3.346 1.841 0 3.004 1.252 3.004 3.186v.528h-4.36v.107c0 .908.571 1.53 1.45 1.53.632 0 1.116-.314 1.275-.8zm-1.351-3.27c-.755 0-1.298.576-1.357 1.371h2.685c-.036-.813-.56-1.37-1.328-1.37zm-3.374 1.223h-1.6c-.1-.67-.542-1.145-1.25-1.145-.85 0-1.381.724-1.381 1.952 0 1.252.53 1.964 1.386 1.964.69 0 1.14-.416 1.246-1.11h1.605c-.089 1.501-1.204 2.468-2.868 2.468-1.906 0-3.116-1.246-3.116-3.322 0-2.041 1.21-3.31 3.104-3.31 1.711 0 2.797 1.061 2.874 2.503zm-9.636 3.993v-6.36h1.664v1.145h.036c.224-.807.761-1.246 1.505-1.246.2 0 .371.03.49.065v1.525a1.753 1.753 0 0 0-.626-.101c-.85 0-1.346.522-1.346 1.418v3.554zm-.819-6.36v6.36h-1.664v-1.145h-.035c-.313.8-.939 1.263-1.895 1.263-1.369 0-2.277-.896-2.277-2.379v-4.1h1.723v3.738c0 .849.419 1.3 1.18 1.3.767 0 1.245-.552 1.245-1.395v-3.642zm-9.558 6.496c-1.912 0-3.134-1.234-3.134-3.322 0-2.059 1.24-3.31 3.134-3.31s3.133 1.245 3.133 3.31c0 2.094-1.221 3.322-3.133 3.322zm0-1.323c.843 0 1.38-.718 1.38-1.993 0-1.264-.542-1.994-1.38-1.994s-1.387.73-1.387 1.994c0 1.275.537 1.993 1.387 1.993zm-8.934-3.304c0-1.21 1.045-2.006 2.668-2.006 1.587 0 2.62.807 2.643 2.041h-1.587c-.035-.51-.443-.824-1.08-.824-.596 0-.985.272-.985.682 0 .314.271.528.826.658l1.21.261c1.268.285 1.782.79 1.782 1.739 0 1.251-1.145 2.076-2.815 2.076-1.688 0-2.726-.819-2.82-2.059h1.68c.084.534.503.843 1.187.843.655 0 1.05-.261 1.05-.676 0-.32-.212-.499-.778-.635l-1.169-.261c-1.198-.273-1.812-.902-1.812-1.84zm-2.111 2.545h1.582c-.19 1.246-1.322 2.082-2.886 2.082-1.948 0-3.116-1.252-3.116-3.287 0-2.029 1.18-3.346 3.05-3.346 1.842 0 3.005 1.252 3.005 3.186v.528h-4.361v.107c0 .908.572 1.53 1.451 1.53.632 0 1.116-.314 1.275-.8zm-1.351-3.27c-.756 0-1.299.576-1.358 1.371h2.685c-.035-.813-.56-1.37-1.327-1.37zm-8.284 2.083v3.133h-1.783V46.29h3.488c1.96 0 3.08 1.038 3.08 2.729 0 1.097-.566 2.047-1.546 2.432l1.794 3.4h-2.018l-1.587-3.133h-1.428zm0-4.028v2.729h1.534c.897 0 1.422-.516 1.422-1.365 0-.83-.555-1.364-1.44-1.364zm-10.048 2.67c0-1.21 1.045-2.006 2.668-2.006 1.587 0 2.62.807 2.643 2.041h-1.587c-.035-.51-.443-.824-1.08-.824-.596 0-.985.272-.985.682 0 .314.271.528.826.658l1.21.261c1.268.285 1.782.79 1.782 1.739 0 1.251-1.145 2.076-2.815 2.076-1.688 0-2.727-.819-2.821-2.059h1.682c.082.534.501.843 1.186.843.655 0 1.05-.261 1.05-.676 0-.32-.212-.499-.779-.635l-1.168-.261c-1.198-.273-1.812-.902-1.812-1.84zm-3.988 4.49v-6.36h1.664v1.146h.036c.224-.807.761-1.246 1.505-1.246.2 0 .371.03.49.065v1.525a1.753 1.753 0 0 0-.626-.101c-.85 0-1.346.522-1.346 1.418v3.554h-1.723zm-2.217-1.945h1.581c-.189 1.246-1.322 2.082-2.885 2.082-1.948 0-3.116-1.252-3.116-3.287 0-2.029 1.18-3.346 3.05-3.346 1.842 0 3.004 1.252 3.004 3.186v.528h-4.36v.107c0 .908.572 1.53 1.451 1.53.631 0 1.115-.314 1.275-.8zm-1.352-3.27c-.755 0-1.298.576-1.357 1.371h2.685c-.035-.813-.56-1.37-1.328-1.37zm-6.283-2.61h1.723v1.466h1.168v1.305h-1.168v3.043c0 .487.236.718.743.718.154 0 .313-.012.42-.03v1.276a3.94 3.94 0 0 1-.82.071c-1.488 0-2.066-.498-2.066-1.738v-3.34h-.891v-1.305h.89v-1.466zm-7.122 7.826v-6.36h1.664v1.133h.036c.336-.79 1.003-1.252 1.977-1.252 1.404 0 2.195.89 2.195 2.38v4.099h-1.723v-3.738c0-.83-.39-1.305-1.163-1.305s-1.263.57-1.263 1.394v3.649zm-2.217-1.946h1.581c-.189 1.246-1.322 2.082-2.886 2.082-1.947 0-3.115-1.252-3.115-3.287 0-2.029 1.18-3.346 3.05-3.346 1.842 0 3.004 1.252 3.004 3.186v.528h-4.36v.107c0 .908.572 1.53 1.451 1.53.631 0 1.115-.314 1.275-.8zm-1.352-3.27c-.755 0-1.298.576-1.357 1.371h2.685c-.035-.813-.56-1.37-1.328-1.37zM131.135 55c-2.479 0-4.03-1.667-4.03-4.432 0-2.759 1.563-4.426 4.03-4.426 2.047 0 3.605 1.306 3.741 3.222h-1.735c-.165-1.05-.968-1.738-2.006-1.738-1.346 0-2.213 1.133-2.213 2.936 0 1.828.855 2.955 2.219 2.955 1.056 0 1.817-.623 2.006-1.638h1.735c-.2 1.91-1.658 3.121-3.747 3.121zm-12.662-.148v-6.36h1.664v1.133h.036c.336-.79 1.003-1.252 1.977-1.252 1.404 0 2.195.89 2.195 2.38v4.099h-1.723v-3.738c0-.83-.39-1.305-1.163-1.305s-1.263.57-1.263 1.394v3.649zm-3.716.136c-1.912 0-3.134-1.234-3.134-3.322 0-2.059 1.24-3.31 3.134-3.31s3.133 1.245 3.133 3.31c0 2.094-1.221 3.322-3.133 3.322zm0-1.323c.843 0 1.38-.718 1.38-1.993 0-1.264-.542-1.994-1.38-1.994s-1.387.73-1.387 1.994c0 1.275.537 1.993 1.387 1.993zm-5.47 1.187v-6.36h1.724v6.36zm.862-7.06a.9.9 0 0 1-.92-.896c0-.504.4-.896.92-.896s.92.392.92.896a.9.9 0 0 1-.92.896zm-4.425-.766h1.723v1.466h1.169v1.305h-1.169v3.043c0 .487.236.718.744.718.153 0 .313-.012.419-.03v1.276a3.94 3.94 0 0 1-.82.071c-1.487 0-2.066-.498-2.066-1.738v-3.34h-.89v-1.305h.89zm-.996 3.833h-1.599c-.1-.67-.543-1.145-1.251-1.145-.85 0-1.38.724-1.38 1.952 0 1.252.53 1.964 1.386 1.964.69 0 1.139-.416 1.245-1.11h1.605c-.088 1.501-1.204 2.468-2.868 2.468-1.906 0-3.116-1.246-3.116-3.322 0-2.041 1.21-3.31 3.104-3.31 1.712 0 2.797 1.061 2.874 2.503zm-8.313 3.993v-6.36h1.723v6.36zm.861-7.06a.9.9 0 0 1-.92-.896c0-.504.4-.896.92-.896s.92.392.92.896a.9.9 0 0 1-.92.896zm-5.44 7.16c-1.581 0-2.578-1.257-2.578-3.292 0-2.017 1.003-3.27 2.59-3.27.915 0 1.623.487 1.93 1.193h.035v-3.292h1.724v8.56h-1.7v-1.09h-.03c-.306.7-1.038 1.192-1.97 1.192zm.585-5.173c-.868 0-1.399.73-1.399 1.893 0 1.168.531 1.886 1.399 1.886.855 0 1.404-.723 1.404-1.886 0-1.157-.549-1.893-1.404-1.893zm-7.482 5.174c-1.581 0-2.579-1.258-2.579-3.293 0-2.017 1.004-3.27 2.591-3.27.915 0 1.623.487 1.93 1.193h.035v-3.292h1.723v8.56h-1.7v-1.09h-.029c-.307.7-1.038 1.192-1.97 1.192zm.585-5.174c-.868 0-1.4.73-1.4 1.893 0 1.168.532 1.886 1.4 1.886.855 0 1.404-.723 1.404-1.886 0-1.157-.549-1.893-1.404-1.893zm-5.01 5.073l-.649-2.077h-2.991l-.65 2.077h-1.829l2.957-8.561h2.094l2.963 8.56h-1.894zm-2.165-6.924l-1.092 3.506h2.225l-1.092-3.506zM66.04 54.852v-6.36h1.665v1.133h.035c.336-.79 1.003-1.252 1.977-1.252 1.404 0 2.195.89 2.195 2.38v4.099H70.19v-3.738c0-.83-.39-1.305-1.163-1.305s-1.262.57-1.262 1.394v3.649zm-4.436.1c-1.204 0-2.119-.783-2.119-1.928 0-1.156.886-1.827 2.461-1.922l1.594-.095v-.421c0-.593-.414-.937-1.063-.937-.643 0-1.05.32-1.133.789H59.77c.065-1.234 1.11-2.083 2.785-2.083 1.623 0 2.68.843 2.68 2.124v4.373H63.57v-.973h-.035c-.354.676-1.14 1.074-1.93 1.074zm.566-1.251c.75 0 1.37-.493 1.37-1.18v-.464l-1.334.083c-.643.048-1.01.339-1.01.79 0 .474.39.77.974.77zm-2.978-2.842h-1.6c-.1-.67-.543-1.145-1.25-1.145-.85 0-1.382.724-1.382 1.952 0 1.252.532 1.964 1.387 1.964.69 0 1.14-.416 1.245-1.11h1.605c-.088 1.501-1.203 2.468-2.867 2.468-1.907 0-3.116-1.246-3.116-3.322 0-2.041 1.21-3.31 3.104-3.31 1.711 0 2.797 1.061 2.874 2.503zm-8.314 3.993v-6.36h1.723v6.36H50.88zm.862-7.06a.9.9 0 0 1-.921-.896c0-.504.401-.896.92-.896.52 0 .921.392.921.896a.9.9 0 0 1-.92.896zm-4.986 7.06v-6.36h1.664v1.145h.036c.224-.807.761-1.246 1.505-1.246.2 0 .371.03.49.065v1.525a1.753 1.753 0 0 0-.626-.101c-.85 0-1.346.522-1.346 1.418v3.554zm-2.217-1.946h1.581c-.189 1.246-1.322 2.082-2.885 2.082-1.948 0-3.116-1.252-3.116-3.287 0-2.029 1.18-3.346 3.05-3.346 1.842 0 3.004 1.252 3.004 3.186v.528h-4.36v.107c0 .908.572 1.53 1.451 1.53.631 0 1.115-.314 1.275-.8zm-1.352-3.27c-.755 0-1.298.576-1.357 1.371h2.685c-.035-.813-.56-1.37-1.328-1.37zm-12.97 5.216v-6.36h1.665v1.15h.035c.266-.765.944-1.269 1.806-1.269.915 0 1.552.475 1.765 1.305h.035c.283-.8 1.039-1.305 1.965-1.305 1.24 0 2.071.854 2.071 2.136v4.343h-1.723v-3.91c0-.736-.366-1.14-1.033-1.14-.655 0-1.085.481-1.085 1.187v3.863h-1.659v-3.963c0-.683-.383-1.086-1.02-1.086-.656 0-1.098.498-1.098 1.21v3.839h-1.723zm-2.311 0l-.65-2.077h-2.991l-.65 2.077h-1.829l2.957-8.561h2.095l2.962 8.56h-1.894zm-2.166-6.924l-1.092 3.506h2.225l-1.092-3.506zm-12.307 6.924v-6.36h1.664v1.133h.035c.336-.79 1.003-1.252 1.977-1.252 1.404 0 2.195.89 2.195 2.38v4.099H17.58v-3.738c0-.83-.39-1.305-1.162-1.305-.774 0-1.263.57-1.263 1.394v3.649h-1.723zm-2.313 0l-.649-2.077H7.478l-.649 2.077H5l2.956-8.561h2.095l2.963 8.56h-1.895zm-2.165-6.924l-1.092 3.506h2.225l-1.092-3.506z" fill="#fff"/>
  </g>
</svg>
